#N canvas 4 102 1105 728 10;
#X obj 734 432 *~;
#X obj 969 345 inlet;
#X obj 920 29 inlet;
#X obj 384 607 outlet~;
#X text 907 8 frequence;
#X text 1011 337 note on /off;
#X obj 91 74 inlet~;
#X text 100 50 FM 1;
#X obj 300 65 inlet~;
#X obj 520 70 inlet~;
#X obj 734 60 inlet~;
#X text 301 47 FM 2;
#X text 539 52 FM 3;
#X text 745 41 FM 4;
#X text 158 594 synthese additive;
#X obj 520 436 *~;
#X obj 302 432 *~;
#X obj 92 433 *~;
#X obj 126 417 adsr.autocut;
#X obj 104 95 r gen1a;
#X obj 136 112 r gen1b;
#X obj 153 129 r gen1k;
#X obj 169 146 r gen1j;
#X obj 185 163 r gen1l;
#X obj 202 180 r gen1m;
#X obj 313 87 r gen2a;
#X obj 345 104 r gen2b;
#X obj 362 121 r gen2k;
#X obj 378 138 r gen2j;
#X obj 394 155 r gen2l;
#X obj 411 172 r gen2m;
#X obj 531 91 r gen3a;
#X obj 563 108 r gen3b;
#X obj 580 125 r gen3k;
#X obj 596 142 r gen3j;
#X obj 612 159 r gen3l;
#X obj 629 176 r gen3m;
#X obj 746 81 r gen4a;
#X obj 778 98 r gen4b;
#X obj 795 115 r gen4k;
#X obj 811 132 r gen4j;
#X obj 827 149 r gen4l;
#X obj 844 166 r gen4m;
#X obj 159 305 r gen1e;
#X obj 171 322 r gen1f;
#X obj 182 339 r gen1c;
#X obj 768 416 adsr.autocut;
#X obj 554 420 adsr.autocut;
#X obj 336 416 adsr.autocut;
#X obj 193 356 r gen1d;
#X obj 205 373 r gen1g;
#X obj 369 303 r gen2e;
#X obj 381 320 r gen2f;
#X obj 392 337 r gen2c;
#X obj 403 354 r gen2d;
#X obj 415 371 r gen2g;
#X obj 587 308 r gen3e;
#X obj 599 325 r gen3f;
#X obj 610 342 r gen3c;
#X obj 621 359 r gen3d;
#X obj 633 376 r gen3g;
#X obj 801 305 r gen4e;
#X obj 813 322 r gen4f;
#X obj 824 339 r gen4c;
#X obj 835 356 r gen4d;
#X obj 847 373 r gen4g;
#X obj 137 271 r gen1i;
#X obj 148 288 r gen1h;
#X obj 347 269 r gen2i;
#X obj 358 286 r gen2h;
#X obj 565 274 r gen3i;
#X obj 576 291 r gen3h;
#X obj 779 271 r gen4i;
#X obj 790 288 r gen4h;
#X obj 383 550 +~;
#X obj 92 228 generateur.signal;
#X obj 301 226 generateur.signal;
#X obj 519 225 generateur.signal;
#X obj 734 224 generateur.signal;
#X obj 213 197 r gen1n;
#X obj 222 214 r gen1o;
#X obj 432 206 r gen2o;
#X obj 424 189 r gen2n;
#X obj 640 193 r gen3n;
#X obj 648 210 r gen3o;
#X obj 857 183 r gen4n;
#X obj 865 200 r gen4o;
#X connect 0 0 74 0;
#X connect 1 0 18 0;
#X connect 1 0 46 0;
#X connect 1 0 47 0;
#X connect 1 0 48 0;
#X connect 2 0 75 2;
#X connect 2 0 76 2;
#X connect 2 0 77 2;
#X connect 2 0 78 2;
#X connect 6 0 75 0;
#X connect 8 0 76 0;
#X connect 9 0 77 0;
#X connect 10 0 78 0;
#X connect 15 0 74 0;
#X connect 16 0 74 0;
#X connect 17 0 74 0;
#X connect 18 0 17 1;
#X connect 19 0 75 1;
#X connect 20 0 75 3;
#X connect 21 0 75 4;
#X connect 22 0 75 5;
#X connect 23 0 75 6;
#X connect 24 0 75 7;
#X connect 25 0 76 1;
#X connect 26 0 76 3;
#X connect 27 0 76 4;
#X connect 28 0 76 5;
#X connect 29 0 76 6;
#X connect 30 0 76 7;
#X connect 31 0 77 1;
#X connect 32 0 77 3;
#X connect 33 0 77 4;
#X connect 34 0 77 5;
#X connect 35 0 77 6;
#X connect 36 0 77 7;
#X connect 37 0 78 1;
#X connect 38 0 78 3;
#X connect 39 0 78 4;
#X connect 40 0 78 5;
#X connect 41 0 78 6;
#X connect 42 0 78 7;
#X connect 43 0 18 3;
#X connect 44 0 18 4;
#X connect 45 0 18 5;
#X connect 46 0 0 1;
#X connect 47 0 15 1;
#X connect 48 0 16 1;
#X connect 49 0 18 6;
#X connect 50 0 18 7;
#X connect 51 0 48 3;
#X connect 52 0 48 4;
#X connect 53 0 48 5;
#X connect 54 0 48 6;
#X connect 55 0 48 7;
#X connect 56 0 47 3;
#X connect 57 0 47 4;
#X connect 58 0 47 5;
#X connect 59 0 47 6;
#X connect 60 0 47 7;
#X connect 61 0 46 3;
#X connect 62 0 46 4;
#X connect 63 0 46 5;
#X connect 64 0 46 6;
#X connect 65 0 46 7;
#X connect 66 0 18 1;
#X connect 67 0 18 2;
#X connect 68 0 48 1;
#X connect 69 0 48 2;
#X connect 70 0 47 1;
#X connect 71 0 47 2;
#X connect 72 0 46 1;
#X connect 73 0 46 2;
#X connect 74 0 3 0;
#X connect 75 0 17 0;
#X connect 76 0 16 0;
#X connect 77 0 15 0;
#X connect 78 0 0 0;
#X connect 79 0 75 8;
#X connect 80 0 75 9;
#X connect 81 0 76 9;
#X connect 82 0 76 8;
#X connect 83 0 77 8;
#X connect 84 0 77 9;
#X connect 85 0 78 8;
#X connect 86 0 78 9;
