#N canvas 82 283 875 745 10;
#X obj 124 440 select 1 0;
#X obj 290 511 pack f f;
#X text 352 428 temps de release;
#X obj 341 444 inlet;
#X obj 124 516 pack 0 f f f f;
#X msg 124 545 \$2 \$3 \, \$4 \$5;
#X obj 236 407 inlet;
#X obj 273 389 inlet;
#X obj 282 407 inlet;
#X obj 320 389 inlet;
#X text 235 342 niveau d'attaque;
#X obj 26 119 inlet;
#X text 22 98 note on/off;
#X text 268 354 temps d'attaque;
#X text 286 366 niveau de sustain;
#X obj 92 165 select 1 0;
#X text 172 152 si 1 (note on) -> donne l'information de coupure apres
le delai PIPE;
#X text 171 183 si 0 (note off) -> vide le cache de PIPE avec clear
\, pour eviter d'affecter la note jouee suivante;
#X msg 92 212 bang;
#X obj 124 241 delay;
#X msg 124 189 stop;
#X obj 154 216 inlet;
#X obj 201 246 inlet;
#X text 198 217 delai avant la coupure auto;
#X text 413 613 une enveloppe adsr augmentee d'un systeme permettant
de generer une coupure automatique de la note apres un certain delai
;
#X obj 201 270 * -1;
#X obj 201 292 + 1;
#X text 240 245 autocoupure on/off;
#X text 95 14 connecteurs de gauche a droite :;
#X text 96 38 NOTEON / DELAI AUTO / AUTO ON / NIV ATT / TMPS ATT /
NIV SUS;
#X text 527 38 / TMPS DECAY / TMPS RELEASE;
#X text 332 376 temps de decay;
#X obj 124 312 f 1;
#X obj 211 619 line~;
#X obj 211 641 outlet~;
#X connect 0 0 4 0;
#X connect 0 1 1 0;
#X connect 1 0 33 0;
#X connect 3 0 1 1;
#X connect 4 0 5 0;
#X connect 5 0 33 0;
#X connect 6 0 4 1;
#X connect 7 0 4 2;
#X connect 8 0 4 3;
#X connect 9 0 4 4;
#X connect 11 0 0 0;
#X connect 11 0 15 0;
#X connect 15 0 18 0;
#X connect 15 1 20 0;
#X connect 18 0 19 0;
#X connect 19 0 32 0;
#X connect 20 0 19 0;
#X connect 21 0 19 1;
#X connect 22 0 25 0;
#X connect 25 0 26 0;
#X connect 26 0 32 1;
#X connect 32 0 0 0;
#X connect 33 0 34 0;
