#N canvas 272 341 544 388 10;
#X obj 252 26 inlet;
#X obj 333 27 inlet;
#X obj 224 291 outlet~;
#X text 88 256 sortie audio;
#X text 103 24 entree valeur freq;
#X text 379 28 note on / off;
#X obj 306 291 outlet~;
#X obj 260 261 filtre;
#X obj 184 80 vibraFM;
#X obj 263 229 paner;
#X obj 263 133 additive+;
#X connect 0 0 8 0;
#X connect 0 0 10 4;
#X connect 1 0 10 5;
#X connect 7 0 2 0;
#X connect 7 1 6 0;
#X connect 8 0 10 0;
#X connect 8 1 10 1;
#X connect 8 2 10 2;
#X connect 8 3 10 3;
#X connect 9 0 7 0;
#X connect 9 1 7 1;
#X connect 9 2 7 2;
#X connect 10 0 9 0;
