#N canvas 222 574 450 330 10;
#X obj 30 -19 inlet~;
#X obj 30 170 outlet~;
#X obj 173 -20 inlet~;
#X obj 175 164 outlet~;
#X obj 215 36 *~ -1;
#X obj 215 73 +~ 1;
#X obj 105 -20 inlet~;
#N canvas 140 194 450 357 filtre 0;
#X obj 103 27 inlet~;
#X obj 103 283 outlet~;
#X obj 164 27 inlet~;
#X obj 154 142 vcf~;
#X obj 124 185 abs;
#X obj 124 165 - 1;
#X obj 153 227 *~;
#X obj 237 136 inlet;
#X text 28 133 filtre;
#X text 234 204 profondeur;
#X obj 165 89 *~ 1500;
#X obj 237 158 sig~;
#X obj 140 252 *~ 6;
#X obj 182 108 r fil1b;
#X obj 104 231 *~ 1;
#X connect 0 0 3 0;
#X connect 0 0 14 0;
#X connect 2 0 10 0;
#X connect 3 0 6 0;
#X connect 4 0 14 1;
#X connect 5 0 4 0;
#X connect 6 0 12 0;
#X connect 7 0 5 0;
#X connect 7 0 11 0;
#X connect 10 0 3 1;
#X connect 11 0 6 1;
#X connect 12 0 1 0;
#X connect 13 0 3 2;
#X connect 14 0 1 0;
#X restore 31 115 pd filtre;
#N canvas 479 260 450 357 filtre 1;
#X obj 103 27 inlet~;
#X obj 103 283 outlet~;
#X obj 164 27 inlet~;
#X obj 154 142 vcf~;
#X obj 119 169 - 1;
#X obj 153 227 *~;
#X obj 237 136 inlet;
#X text 30 139 filtre;
#X text 229 221 profondeur;
#X obj 165 89 *~ 1500;
#X text 219 82 pour cnvertir les valeurs du paner en freq intelligibles
;
#X obj 237 161 sig~;
#X obj 119 189 abs;
#X obj 140 252 *~ 6;
#X obj 182 108 r fil1b;
#X obj 104 239 *~ 1;
#X connect 0 0 3 0;
#X connect 0 0 15 0;
#X connect 2 0 9 0;
#X connect 3 0 5 0;
#X connect 4 0 12 0;
#X connect 5 0 13 0;
#X connect 6 0 4 0;
#X connect 6 0 11 0;
#X connect 9 0 3 1;
#X connect 11 0 5 1;
#X connect 12 0 15 1;
#X connect 13 0 1 0;
#X connect 14 0 3 2;
#X connect 15 0 1 0;
#X restore 174 103 pd filtre;
#X text 130 226 filtre synchronise avec le paner;
#X obj 96 62 r fil1a;
#X connect 0 0 7 0;
#X connect 2 0 8 0;
#X connect 4 0 5 0;
#X connect 5 0 8 1;
#X connect 6 0 4 0;
#X connect 6 0 7 1;
#X connect 7 0 1 0;
#X connect 8 0 3 0;
#X connect 10 0 7 2;
#X connect 10 0 8 2;
