#N canvas 102 255 945 859 10;
#X obj 340 40 inlet;
#X obj 266 43 inlet;
#X obj 264 546 outlet~;
#X obj 113 45 inlet;
#X obj 265 515 *~;
#X text 87 24 volume de l'osc;
#X text 342 10 multiplicateur;
#X text 220 22 frequence "porteuse";
#X obj 252 133 phasor~;
#X obj 322 132 osc~;
#X obj 434 359 inlet;
#X obj 118 79 sig~;
#X obj 434 376 sig~;
#X obj 434 393 *~ -1;
#X obj 435 410 +~ 1;
#X obj 292 103 *~;
#X obj 340 60 sig~;
#X obj 292 81 +~;
#X obj 20 49 inlet~;
#X text 8 32 entree FM;
#X obj 398 82 inlet;
#X obj 321 160 *~ 1;
#X obj 398 107 select 1 0;
#X msg 381 130 50000;
#X msg 445 133 1;
#X text 419 61 cliping signal on / off;
#X text 481 407 phaser / osc ratio;
#X text 23 640 generateur de signal parametrable;
#X text 26 745 ordre des entrees :;
#X text 161 767 1;
#X text 203 768 2;
#X text 262 772 3;
#X text 364 776 4;
#X text 472 777 5;
#X text 581 776 6;
#X text 670 772 7;
#X text 765 774 8;
#X text 21 651 ---------------------------------;
#X obj 266 448 *~;
#X obj 409 447 *~;
#X obj 321 183 clip~ -1 1;
#X obj 279 273 +~;
#X obj 253 351 *~;
#X obj 279 306 cos~;
#X obj 280 351 *~;
#X obj 573 248 inlet;
#X obj 573 265 sig~;
#X obj 573 282 *~ -1;
#X obj 573 299 +~ 1;
#N canvas 213 527 643 461 phasemod 0;
#X obj 204 359 outlet~;
#X obj 419 13 inlet;
#X obj 281 208 / 100;
#X obj 281 254 line~;
#X obj 219 53 inlet;
#X obj 281 232 pack f f;
#X obj 311 143 random;
#X obj 311 115 metro;
#X obj 281 51 inlet;
#X obj 311 175 spigot 0;
#X msg 405 63 0;
#X msg 440 74 10000;
#X msg 460 128 1;
#X msg 450 101 100;
#X msg 454 159 5000;
#X msg 374 62 50;
#X msg 498 76 2;
#X msg 497 103 50;
#X msg 510 145 1;
#X obj 419 43 select 0 1 2;
#X text 296 301 modulation de phase;
#X text 413 200 deux modes aleatoires;
#X text 136 21 frequence modulante;
#X text 284 29 indice;
#X text 463 0 mode aleatoire;
#X obj 203 175 osc~;
#X obj 203 279 *~;
#X text 364 337 le reste du processus s'effectue;
#X text 343 362 dans la fenetre generateur.signal;
#X obj 52 61 inlet;
#X text -13 43 frequence porteuse;
#X obj 203 105 /;
#X connect 1 0 19 0;
#X connect 2 0 5 0;
#X connect 3 0 26 1;
#X connect 4 0 31 1;
#X connect 5 0 3 0;
#X connect 6 0 9 0;
#X connect 7 0 6 0;
#X connect 8 0 2 0;
#X connect 9 0 2 0;
#X connect 10 0 9 1;
#X connect 11 0 7 1;
#X connect 12 0 7 0;
#X connect 12 0 9 1;
#X connect 13 0 6 1;
#X connect 14 0 5 1;
#X connect 15 0 5 1;
#X connect 16 0 7 1;
#X connect 17 0 6 1;
#X connect 18 0 5 1;
#X connect 19 0 10 0;
#X connect 19 0 15 0;
#X connect 19 1 11 0;
#X connect 19 1 13 0;
#X connect 19 1 12 0;
#X connect 19 1 14 0;
#X connect 19 2 16 0;
#X connect 19 2 12 0;
#X connect 19 2 17 0;
#X connect 19 2 18 0;
#X connect 25 0 26 0;
#X connect 26 0 0 0;
#X connect 29 0 31 0;
#X connect 31 0 25 0;
#X restore 696 204 pd phasemod;
#X obj 680 144 inlet;
#X obj 735 145 inlet;
#X obj 785 146 inlet;
#X text 715 224 modulation de phase;
#X text 828 773 9;
#X text 889 773 10;
#X text 651 121 modulante;
#X text 726 122 indice;
#X text 785 123 random;
#X text 285 243 modulation de phase;
#X text 631 286 switch phasor / modulation de phase;
#X text 160 745 FM / vol / freq in / multiplicateur / cliping on off/
;
#X text 537 746 phasor-osc / phasor-PM / PM modulante / indice / rand
;
#X connect 0 0 16 0;
#X connect 1 0 17 0;
#X connect 1 0 49 0;
#X connect 3 0 11 0;
#X connect 4 0 2 0;
#X connect 8 0 41 0;
#X connect 8 0 42 0;
#X connect 9 0 21 0;
#X connect 10 0 12 0;
#X connect 11 0 4 1;
#X connect 12 0 13 0;
#X connect 12 0 38 1;
#X connect 13 0 14 0;
#X connect 14 0 39 1;
#X connect 15 0 8 0;
#X connect 15 0 9 0;
#X connect 16 0 15 1;
#X connect 17 0 15 0;
#X connect 18 0 17 1;
#X connect 20 0 22 0;
#X connect 21 0 40 0;
#X connect 22 0 23 0;
#X connect 22 1 24 0;
#X connect 23 0 21 1;
#X connect 24 0 21 1;
#X connect 38 0 4 0;
#X connect 39 0 4 0;
#X connect 40 0 39 0;
#X connect 41 0 43 0;
#X connect 42 0 38 0;
#X connect 43 0 44 0;
#X connect 44 0 38 0;
#X connect 45 0 46 0;
#X connect 46 0 47 0;
#X connect 46 0 44 1;
#X connect 47 0 48 0;
#X connect 48 0 42 1;
#X connect 49 0 41 1;
#X connect 50 0 49 1;
#X connect 51 0 49 2;
#X connect 52 0 49 3;
