#N canvas 849 109 497 228 10;
#X obj 52 95 mtof;
#X obj 52 115 pack f f;
#X obj 52 157 pack f f f;
#X obj 52 45 notein 1;
#X obj 116 66 select 0;
#X obj 170 90 bng 15 250 50 0 empty empty empty 17 7 0 10 -262144 -1
-1;
#X obj 115 108 float 1;
#X obj 116 87 float 0;
#X obj 52 177 outlet;
#X obj 52 137 poly 10 1;
#X text 10 24 Module entree midi + routage polyphonique sur 10 voix
;
#X text 204 103 de velocite;
#X text 137 156 pour ajouter des voix : -changer la valeur de [poly]
-ajouter les voix dans [route] (dans l'abs routage) -dupliquer les
voix;
#X text 116 44 fonctionne avec canal midi 1;
#X text 204 89 note on et note off grace a l'info;
#X obj 185 63 s noteinf;
#X text 256 67 infomidi;
#X connect 0 0 1 0;
#X connect 1 0 9 0;
#X connect 2 0 8 0;
#X connect 3 0 0 0;
#X connect 3 1 4 0;
#X connect 3 1 15 0;
#X connect 4 0 7 0;
#X connect 4 1 5 0;
#X connect 5 0 6 0;
#X connect 6 0 1 1;
#X connect 7 0 1 1;
#X connect 9 0 2 0;
#X connect 9 1 2 1;
#X connect 9 2 2 2;
