#N canvas 170 386 679 507 10;
#X obj 366 406 *~;
#X text 441 368 canal droit;
#X obj 247 431 outlet~;
#X obj 366 430 outlet~;
#X obj 247 407 *~;
#X obj 485 85 inlet~;
#X text 146 410 canal gauche;
#X text 344 15 parametrable : profondeur et duree;
#X text 289 2 module paner (modulation reguliere ou aleatoire);
#N canvas 603 417 533 467 panregulier 0;
#X obj 134 54 inlet;
#X obj 281 64 inlet;
#X text 133 37 on /off;
#X text 245 43 profondeur;
#X text 380 42 temps;
#X obj 381 62 inlet;
#X obj 381 193 / 2;
#X obj 358 222 pipe;
#X obj 149 184 metro;
#X obj 281 183 / 200;
#X obj 230 220 + 0.5;
#X obj 281 220 - 0.5;
#X obj 281 247 * -1;
#X obj 273 367 pack f f;
#X obj 358 251 bng 15 250 50 0 empty empty empty 17 7 0 10 -262144
-1 -1;
#X obj 274 389 outlet;
#X msg 135 128 1;
#X msg 173 127 0;
#X obj 134 86 select 1 0;
#X msg 210 127 0;
#X text 217 143 desactive l'autre mode de paning;
#X obj 210 159 s pan2a;
#X obj 13 22 loadbang;
#X msg 14 44 1;
#X text 36 7 eviter les problemes au lancement du patch;
#X obj 214 279 f 0.5;
#X obj 358 276 f 0.5;
#X connect 0 0 18 0;
#X connect 1 0 9 0;
#X connect 5 0 6 0;
#X connect 5 0 8 1;
#X connect 6 0 7 1;
#X connect 6 0 13 1;
#X connect 7 0 14 0;
#X connect 8 0 7 0;
#X connect 8 0 25 0;
#X connect 9 0 10 0;
#X connect 9 0 11 0;
#X connect 10 0 25 1;
#X connect 11 0 12 0;
#X connect 12 0 26 1;
#X connect 13 0 15 0;
#X connect 14 0 26 0;
#X connect 16 0 8 0;
#X connect 17 0 8 0;
#X connect 18 0 16 0;
#X connect 18 0 19 0;
#X connect 18 1 17 0;
#X connect 19 0 21 0;
#X connect 22 0 23 0;
#X connect 23 0 18 0;
#X connect 25 0 13 0;
#X connect 26 0 13 0;
#X restore 50 232 pd panregulier;
#N canvas 503 555 454 328 panalea 0;
#X obj 49 14 inlet;
#X obj 332 23 inlet;
#X obj 49 200 / 100;
#X obj 49 136 metro;
#X obj 75 240 pack f f;
#X obj 49 170 random 100;
#X obj 75 269 outlet;
#X msg 58 88 1;
#X msg 96 87 0;
#X obj 57 46 select 1 0;
#X msg 133 87 0;
#X text 140 103 desactive l'autre mode de paning;
#X text 51 1 on/off;
#X text 337 5 temps;
#X obj 133 119 s pan1a;
#X connect 0 0 9 0;
#X connect 1 0 3 1;
#X connect 1 0 4 1;
#X connect 2 0 4 0;
#X connect 3 0 5 0;
#X connect 4 0 6 0;
#X connect 5 0 2 0;
#X connect 7 0 3 0;
#X connect 8 0 3 0;
#X connect 9 0 7 0;
#X connect 9 0 10 0;
#X connect 9 1 8 0;
#X connect 10 0 14 0;
#X restore 262 229 pd panalea;
#X text 19 117 paner periodique (regulier);
#X text 258 140 paner aleatoire;
#X obj 394 340 *~ -1;
#X obj 394 377 +~ 1;
#X obj 307 432 outlet~;
#X obj 50 150 r pan1a;
#X obj 143 191 r pan1c;
#X obj 96 169 r pan1b;
#X obj 262 170 r pan2a;
#X obj 276 193 r pan2b;
#X obj 225 290 line~;
#X connect 0 0 3 0;
#X connect 4 0 2 0;
#X connect 5 0 0 0;
#X connect 5 0 4 0;
#X connect 9 0 21 0;
#X connect 10 0 21 0;
#X connect 13 0 14 0;
#X connect 14 0 0 1;
#X connect 16 0 9 0;
#X connect 17 0 9 2;
#X connect 18 0 9 1;
#X connect 19 0 10 0;
#X connect 20 0 10 1;
#X connect 21 0 4 1;
#X connect 21 0 13 0;
#X connect 21 0 15 0;
