#N canvas 482 412 1012 702 12;
#X obj 102 176 cnv 15 500 400 empty empty empty 20 12 0 14 -260818
-66577 0;
#X obj 116 516 keyname;
#X obj 115 546 select F1 F2 F3 F4 F5 F6 F7 F8 F9 F10 F11 F12;
#X obj 116 478 s ftouches;
#X text 557 273 F1;
#X text 558 292 F2;
#X text 559 312 F3;
#X text 560 333 F4;
#X text 563 352 F5;
#X text 564 375 F6;
#X text 566 396 F7;
#X text 567 416 F8;
#X text 570 435 F9;
#X text 568 454 F10;
#X text 570 476 F11;
#X text 593 500 F12;
#X text 125 179 Pour changer les prereglages affectes aux touches F1
- F12;
#X text 153 192 changer le nom pour un reglage du sous dossier "preset"
;
#X text 168 207 sous la forme : symbol presets/[nom_de_preset];
#X obj 57 8 cnv 15 500 120 empty empty empty 20 12 0 14 -241291 -66577
0;
#X text 69 15 module de sauvegarde et chargement de presets via fichiers
texte !;
#N canvas 4 47 1577 1071 sauvegarde 0;
#X obj 96 89 r sauvpres;
#X msg 530 158 clear;
#X msg 792 1113 write \$1;
#X obj 792 1082 savepanel;
#X obj 792 1169 textfile;
#X obj 801 1143 r txtsauve;
#X obj 539 183 s txtsauve;
#X text 726 1055 sauve le preset sous un nom de fichier;
#X obj 821 25 loadbang;
#X msg 821 50 \; presetnom label;
#N canvas 356 409 477 333 snomsauvs 0;
#X obj 64 24 inlet;
#X msg 64 59 nom;
#X obj 64 87 pack s s;
#X msg 64 121 add \$1 \$2;
#X obj 64 196 s txtsauve;
#X obj 131 43 r snomsauv;
#X msg 198 153 \; presetnom label \$2;
#X connect 0 0 1 0;
#X connect 1 0 2 0;
#X connect 2 0 3 0;
#X connect 2 0 6 0;
#X connect 3 0 4 0;
#X connect 5 0 2 1;
#X restore 995 1016 pd snomsauvs;
#X text 556 144 nettoie [textfile];
#X text 985 1037 sauve le nom de preset+charge le nom dans le menu
;
#X text 575 24 initialise le nom a vide ->;
#X text -60 13 sauve les valeurs dans un fichier texte sous la forme
: nom [nom] \; 1 [valeur] \; 2 [valeur] \; 3 [valeur] \; ...;
#N canvas 643 682 226 270 gen1a 0;
#X obj 33 61 inlet;
#X obj 33 127 pack \$1 \$2;
#X msg 33 158 add \$1 \$2;
#X msg 33 96 1;
#X obj 33 191 s txtsauve;
#X obj 118 80 r gen1a;
#X connect 0 0 3 0;
#X connect 1 0 2 0;
#X connect 2 0 4 0;
#X connect 3 0 1 0;
#X connect 5 0 1 1;
#X restore 404 159 pd gen1a;
#N canvas 639 661 226 270 gen1b 0;
#X obj 33 61 inlet;
#X obj 33 127 pack \$1 \$2;
#X msg 33 158 add \$1 \$2;
#X obj 33 191 s txtsauve;
#X msg 33 96 2;
#X obj 118 80 r gen1b;
#X connect 0 0 4 0;
#X connect 1 0 2 0;
#X connect 2 0 3 0;
#X connect 4 0 1 0;
#X connect 5 0 1 1;
#X restore 395 178 pd gen1b;
#N canvas 639 661 226 270 gen1c 0;
#X obj 33 61 inlet;
#X obj 33 127 pack \$1 \$2;
#X msg 33 158 add \$1 \$2;
#X obj 33 191 s txtsauve;
#X msg 33 96 3;
#X obj 118 80 r gen1c;
#X connect 0 0 4 0;
#X connect 1 0 2 0;
#X connect 2 0 3 0;
#X connect 4 0 1 0;
#X connect 5 0 1 1;
#X restore 373 197 pd gen1c;
#N canvas 643 682 226 270 gen1d 0;
#X obj 33 61 inlet;
#X obj 33 127 pack \$1 \$2;
#X msg 33 158 add \$1 \$2;
#X obj 33 191 s txtsauve;
#X msg 33 96 4;
#X obj 119 80 r gen1d;
#X connect 0 0 4 0;
#X connect 1 0 2 0;
#X connect 2 0 3 0;
#X connect 4 0 1 0;
#X connect 5 0 1 1;
#X restore 361 216 pd gen1d;
#N canvas 643 682 226 270 gen1e 0;
#X obj 33 61 inlet;
#X obj 33 127 pack \$1 \$2;
#X msg 33 158 add \$1 \$2;
#X obj 33 191 s txtsauve;
#X msg 33 96 5;
#X obj 120 80 r gen1e;
#X connect 0 0 4 0;
#X connect 1 0 2 0;
#X connect 2 0 3 0;
#X connect 4 0 1 0;
#X connect 5 0 1 1;
#X restore 344 235 pd gen1e;
#N canvas 643 682 226 270 gen1f 0;
#X obj 33 61 inlet;
#X obj 33 127 pack \$1 \$2;
#X msg 33 158 add \$1 \$2;
#X obj 33 191 s txtsauve;
#X msg 33 96 6;
#X obj 118 80 r gen1f;
#X connect 0 0 4 0;
#X connect 1 0 2 0;
#X connect 2 0 3 0;
#X connect 4 0 1 0;
#X connect 5 0 1 1;
#X restore 328 254 pd gen1f;
#N canvas 639 661 226 270 gen1g 0;
#X obj 33 61 inlet;
#X obj 33 127 pack \$1 \$2;
#X msg 33 158 add \$1 \$2;
#X obj 33 191 s txtsauve;
#X msg 33 96 7;
#X obj 118 80 r gen1g;
#X connect 0 0 4 0;
#X connect 1 0 2 0;
#X connect 2 0 3 0;
#X connect 4 0 1 0;
#X connect 5 0 1 1;
#X restore 309 273 pd gen1g;
#N canvas 639 661 226 270 gen1h 0;
#X obj 33 61 inlet;
#X obj 33 127 pack \$1 \$2;
#X msg 33 158 add \$1 \$2;
#X obj 33 191 s txtsauve;
#X msg 33 96 8;
#X obj 118 80 r gen1h;
#X connect 0 0 4 0;
#X connect 1 0 2 0;
#X connect 2 0 3 0;
#X connect 4 0 1 0;
#X connect 5 0 1 1;
#X restore 292 292 pd gen1h;
#N canvas 639 661 226 270 gen1i 0;
#X obj 33 61 inlet;
#X obj 33 127 pack \$1 \$2;
#X msg 33 158 add \$1 \$2;
#X obj 33 191 s txtsauve;
#X msg 33 96 9;
#X obj 118 80 r gen1i;
#X connect 0 0 4 0;
#X connect 1 0 2 0;
#X connect 2 0 3 0;
#X connect 4 0 1 0;
#X connect 5 0 1 1;
#X restore 278 311 pd gen1i;
#N canvas 639 661 226 270 gen1j 0;
#X obj 33 61 inlet;
#X obj 33 127 pack \$1 \$2;
#X msg 33 158 add \$1 \$2;
#X obj 33 191 s txtsauve;
#X msg 33 96 10;
#X obj 118 80 r gen1j;
#X connect 0 0 4 0;
#X connect 1 0 2 0;
#X connect 2 0 3 0;
#X connect 4 0 1 0;
#X connect 5 0 1 1;
#X restore 262 330 pd gen1j;
#N canvas 639 661 226 270 gen1k 0;
#X obj 33 61 inlet;
#X obj 33 127 pack \$1 \$2;
#X msg 33 158 add \$1 \$2;
#X obj 33 191 s txtsauve;
#X msg 33 96 11;
#X obj 118 80 r gen1k;
#X connect 0 0 4 0;
#X connect 1 0 2 0;
#X connect 2 0 3 0;
#X connect 4 0 1 0;
#X connect 5 0 1 1;
#X restore 252 349 pd gen1k;
#N canvas 639 661 226 270 gen1l 0;
#X obj 33 61 inlet;
#X obj 33 127 pack \$1 \$2;
#X msg 33 158 add \$1 \$2;
#X obj 33 191 s txtsauve;
#X msg 33 96 12;
#X obj 118 80 r gen1l;
#X connect 0 0 4 0;
#X connect 1 0 2 0;
#X connect 2 0 3 0;
#X connect 4 0 1 0;
#X connect 5 0 1 1;
#X restore 239 368 pd gen1l;
#N canvas 643 682 226 270 gen1m 0;
#X obj 33 61 inlet;
#X obj 33 127 pack \$1 \$2;
#X msg 33 158 add \$1 \$2;
#X obj 33 191 s txtsauve;
#X msg 33 96 13;
#X obj 118 80 r gen1m;
#X connect 0 0 4 0;
#X connect 1 0 2 0;
#X connect 2 0 3 0;
#X connect 4 0 1 0;
#X connect 5 0 1 1;
#X restore 226 387 pd gen1m;
#N canvas 643 682 226 270 gen1n 0;
#X obj 33 61 inlet;
#X obj 33 127 pack \$1 \$2;
#X msg 33 158 add \$1 \$2;
#X obj 33 191 s txtsauve;
#X obj 118 80 r gen1n;
#X msg 33 96 14;
#X connect 0 0 5 0;
#X connect 1 0 2 0;
#X connect 2 0 3 0;
#X connect 4 0 1 1;
#X connect 5 0 1 0;
#X restore 208 405 pd gen1n;
#N canvas 643 682 226 270 gen1o 0;
#X obj 33 61 inlet;
#X obj 33 127 pack \$1 \$2;
#X msg 33 158 add \$1 \$2;
#X obj 33 191 s txtsauve;
#X obj 118 80 r gen1o;
#X msg 33 96 15;
#X connect 0 0 5 0;
#X connect 1 0 2 0;
#X connect 2 0 3 0;
#X connect 4 0 1 1;
#X connect 5 0 1 0;
#X restore 197 424 pd gen1o;
#X obj 96 457 t b b b b b b b b b b b b b b b b;
#X obj 96 119 t b b b b b b b b b b b b b b b b b;
#N canvas 647 703 226 270 gen2a 0;
#X obj 33 61 inlet;
#X obj 33 127 pack \$1 \$2;
#X msg 33 158 add \$1 \$2;
#X obj 33 191 s txtsauve;
#X msg 33 96 16;
#X obj 118 80 r gen2a;
#X connect 0 0 4 0;
#X connect 1 0 2 0;
#X connect 2 0 3 0;
#X connect 4 0 1 0;
#X connect 5 0 1 1;
#X restore 389 481 pd gen2a;
#N canvas 651 724 226 270 gen2b 0;
#X obj 33 61 inlet;
#X obj 33 127 pack \$1 \$2;
#X msg 33 158 add \$1 \$2;
#X obj 33 191 s txtsauve;
#X msg 34 96 17;
#X obj 118 80 r gen2b;
#X connect 0 0 4 0;
#X connect 1 0 2 0;
#X connect 2 0 3 0;
#X connect 4 0 1 0;
#X connect 5 0 1 1;
#X restore 380 500 pd gen2b;
#N canvas 651 724 226 270 gen2c 0;
#X obj 33 61 inlet;
#X obj 33 127 pack \$1 \$2;
#X msg 33 158 add \$1 \$2;
#X obj 33 191 s txtsauve;
#X msg 33 96 18;
#X obj 118 80 r gen2c;
#X connect 0 0 4 0;
#X connect 1 0 2 0;
#X connect 2 0 3 0;
#X connect 4 0 1 0;
#X connect 5 0 1 1;
#X restore 358 519 pd gen2c;
#N canvas 651 724 226 270 gen2d 0;
#X obj 33 61 inlet;
#X obj 33 127 pack \$1 \$2;
#X msg 33 158 add \$1 \$2;
#X obj 33 191 s txtsauve;
#X msg 33 96 19;
#X obj 119 80 r gen2d;
#X connect 0 0 4 0;
#X connect 1 0 2 0;
#X connect 2 0 3 0;
#X connect 4 0 1 0;
#X connect 5 0 1 1;
#X restore 346 538 pd gen2d;
#N canvas 651 724 226 270 gen2e 0;
#X obj 33 61 inlet;
#X obj 33 127 pack \$1 \$2;
#X msg 33 158 add \$1 \$2;
#X obj 33 191 s txtsauve;
#X msg 33 96 20;
#X obj 120 80 r gen2e;
#X connect 0 0 4 0;
#X connect 1 0 2 0;
#X connect 2 0 3 0;
#X connect 4 0 1 0;
#X connect 5 0 1 1;
#X restore 329 556 pd gen2e;
#N canvas 659 766 226 270 gen2f 0;
#X obj 33 61 inlet;
#X obj 33 127 pack \$1 \$2;
#X msg 33 158 add \$1 \$2;
#X obj 33 191 s txtsauve;
#X msg 33 96 21;
#X obj 118 80 r gen2f;
#X connect 0 0 4 0;
#X connect 1 0 2 0;
#X connect 2 0 3 0;
#X connect 4 0 1 0;
#X connect 5 0 1 1;
#X restore 313 576 pd gen2f;
#N canvas 651 724 226 270 gen2g 0;
#X obj 33 61 inlet;
#X obj 33 127 pack \$1 \$2;
#X msg 33 158 add \$1 \$2;
#X obj 33 191 s txtsauve;
#X msg 33 96 22;
#X obj 118 80 r gen2g;
#X connect 0 0 4 0;
#X connect 1 0 2 0;
#X connect 2 0 3 0;
#X connect 4 0 1 0;
#X connect 5 0 1 1;
#X restore 294 595 pd gen2g;
#N canvas 651 724 226 270 gen2h 0;
#X obj 33 61 inlet;
#X obj 33 127 pack \$1 \$2;
#X msg 33 158 add \$1 \$2;
#X obj 33 191 s txtsauve;
#X msg 33 96 23;
#X obj 118 80 r gen2h;
#X connect 0 0 4 0;
#X connect 1 0 2 0;
#X connect 2 0 3 0;
#X connect 4 0 1 0;
#X connect 5 0 1 1;
#X restore 277 614 pd gen2h;
#N canvas 647 703 226 270 gen2i 0;
#X obj 33 61 inlet;
#X obj 33 127 pack \$1 \$2;
#X msg 33 158 add \$1 \$2;
#X obj 33 191 s txtsauve;
#X msg 33 96 24;
#X obj 118 80 r gen2i;
#X connect 0 0 4 0;
#X connect 1 0 2 0;
#X connect 2 0 3 0;
#X connect 4 0 1 0;
#X connect 5 0 1 1;
#X restore 263 633 pd gen2i;
#N canvas 647 703 226 270 gen2j 0;
#X obj 33 61 inlet;
#X obj 33 127 pack \$1 \$2;
#X msg 33 158 add \$1 \$2;
#X obj 33 191 s txtsauve;
#X msg 33 96 25;
#X obj 118 80 r gen2j;
#X connect 0 0 4 0;
#X connect 1 0 2 0;
#X connect 2 0 3 0;
#X connect 4 0 1 0;
#X connect 5 0 1 1;
#X restore 247 652 pd gen2j;
#N canvas 647 703 226 270 gen2k 0;
#X obj 33 61 inlet;
#X obj 33 127 pack \$1 \$2;
#X msg 33 158 add \$1 \$2;
#X obj 33 191 s txtsauve;
#X msg 33 96 26;
#X obj 118 80 r gen2k;
#X connect 0 0 4 0;
#X connect 1 0 2 0;
#X connect 2 0 3 0;
#X connect 4 0 1 0;
#X connect 5 0 1 1;
#X restore 237 671 pd gen2k;
#N canvas 651 724 226 270 gen2l 0;
#X obj 33 61 inlet;
#X obj 33 127 pack \$1 \$2;
#X msg 33 158 add \$1 \$2;
#X obj 33 191 s txtsauve;
#X msg 33 96 27;
#X obj 118 80 r gen2l;
#X connect 0 0 4 0;
#X connect 1 0 2 0;
#X connect 2 0 3 0;
#X connect 4 0 1 0;
#X connect 5 0 1 1;
#X restore 224 690 pd gen2l;
#N canvas 651 724 226 270 gen2m 0;
#X obj 33 61 inlet;
#X obj 33 127 pack \$1 \$2;
#X msg 33 158 add \$1 \$2;
#X obj 33 191 s txtsauve;
#X msg 33 96 28;
#X obj 118 80 r gen2m;
#X connect 0 0 4 0;
#X connect 1 0 2 0;
#X connect 2 0 3 0;
#X connect 4 0 1 0;
#X connect 5 0 1 1;
#X restore 211 709 pd gen2m;
#N canvas 651 724 226 270 gen2n 0;
#X obj 33 61 inlet;
#X obj 33 127 pack \$1 \$2;
#X msg 33 158 add \$1 \$2;
#X obj 33 191 s txtsauve;
#X msg 33 96 29;
#X obj 118 80 r gen2n;
#X connect 0 0 4 0;
#X connect 1 0 2 0;
#X connect 2 0 3 0;
#X connect 4 0 1 0;
#X connect 5 0 1 1;
#X restore 193 727 pd gen2n;
#N canvas 651 724 226 270 gen2o 0;
#X obj 33 61 inlet;
#X obj 33 127 pack \$1 \$2;
#X msg 33 158 add \$1 \$2;
#X obj 33 191 s txtsauve;
#X msg 33 96 30;
#X obj 118 80 r gen2o;
#X connect 0 0 4 0;
#X connect 1 0 2 0;
#X connect 2 0 3 0;
#X connect 4 0 1 0;
#X connect 5 0 1 1;
#X restore 182 746 pd gen2o;
#X obj 501 452 t b b b b b b b b b b b b b b b b;
#N canvas 655 745 226 270 gen3a 0;
#X obj 33 61 inlet;
#X obj 33 127 pack \$1 \$2;
#X msg 33 158 add \$1 \$2;
#X obj 33 191 s txtsauve;
#X msg 33 96 31;
#X obj 118 80 r gen3a;
#X connect 0 0 4 0;
#X connect 1 0 2 0;
#X connect 2 0 3 0;
#X connect 4 0 1 0;
#X connect 5 0 1 1;
#X restore 794 476 pd gen3a;
#N canvas 659 766 226 270 gen3b 0;
#X obj 33 61 inlet;
#X obj 33 127 pack \$1 \$2;
#X msg 33 158 add \$1 \$2;
#X obj 33 191 s txtsauve;
#X msg 34 96 32;
#X obj 118 80 r gen3b;
#X connect 0 0 4 0;
#X connect 1 0 2 0;
#X connect 2 0 3 0;
#X connect 4 0 1 0;
#X connect 5 0 1 1;
#X restore 785 495 pd gen3b;
#N canvas 659 766 226 270 gen3c 0;
#X obj 33 61 inlet;
#X obj 33 127 pack \$1 \$2;
#X msg 33 158 add \$1 \$2;
#X obj 33 191 s txtsauve;
#X msg 33 96 33;
#X obj 118 80 r gen3c;
#X connect 0 0 4 0;
#X connect 1 0 2 0;
#X connect 2 0 3 0;
#X connect 4 0 1 0;
#X connect 5 0 1 1;
#X restore 763 514 pd gen3c;
#N canvas 663 787 226 270 gen3d 0;
#X obj 33 61 inlet;
#X obj 33 127 pack \$1 \$2;
#X msg 33 158 add \$1 \$2;
#X obj 33 191 s txtsauve;
#X msg 33 96 34;
#X obj 119 80 r gen3d;
#X connect 0 0 4 0;
#X connect 1 0 2 0;
#X connect 2 0 3 0;
#X connect 4 0 1 0;
#X connect 5 0 1 1;
#X restore 751 533 pd gen3d;
#N canvas 655 745 226 270 gen3e 0;
#X obj 33 61 inlet;
#X obj 33 127 pack \$1 \$2;
#X msg 33 158 add \$1 \$2;
#X obj 33 191 s txtsauve;
#X msg 33 96 35;
#X obj 120 80 r gen3e;
#X connect 0 0 4 0;
#X connect 1 0 2 0;
#X connect 2 0 3 0;
#X connect 4 0 1 0;
#X connect 5 0 1 1;
#X restore 734 551 pd gen3e;
#N canvas 663 787 226 270 gen3f 0;
#X obj 33 61 inlet;
#X obj 33 127 pack \$1 \$2;
#X msg 33 158 add \$1 \$2;
#X obj 33 191 s txtsauve;
#X msg 33 96 36;
#X obj 118 80 r gen3f;
#X connect 0 0 4 0;
#X connect 1 0 2 0;
#X connect 2 0 3 0;
#X connect 4 0 1 0;
#X connect 5 0 1 1;
#X restore 718 571 pd gen3f;
#N canvas 655 745 226 270 gen3g 0;
#X obj 33 61 inlet;
#X obj 33 127 pack \$1 \$2;
#X msg 33 158 add \$1 \$2;
#X obj 33 191 s txtsauve;
#X msg 33 96 37;
#X obj 118 80 r gen3g;
#X connect 0 0 4 0;
#X connect 1 0 2 0;
#X connect 2 0 3 0;
#X connect 4 0 1 0;
#X connect 5 0 1 1;
#X restore 699 590 pd gen3g;
#N canvas 655 745 226 270 gen3h 0;
#X obj 33 61 inlet;
#X obj 33 127 pack \$1 \$2;
#X msg 33 158 add \$1 \$2;
#X obj 33 191 s txtsauve;
#X msg 33 96 38;
#X obj 118 80 r gen3h;
#X connect 0 0 4 0;
#X connect 1 0 2 0;
#X connect 2 0 3 0;
#X connect 4 0 1 0;
#X connect 5 0 1 1;
#X restore 682 609 pd gen3h;
#N canvas 651 724 226 270 gen3i 0;
#X obj 33 61 inlet;
#X obj 33 127 pack \$1 \$2;
#X msg 33 158 add \$1 \$2;
#X obj 33 191 s txtsauve;
#X msg 33 96 39;
#X obj 118 81 r gen3i;
#X connect 0 0 4 0;
#X connect 1 0 2 0;
#X connect 2 0 3 0;
#X connect 4 0 1 0;
#X connect 5 0 1 1;
#X restore 668 628 pd gen3i;
#N canvas 651 724 226 270 gen3j 0;
#X obj 33 61 inlet;
#X obj 33 127 pack \$1 \$2;
#X msg 33 158 add \$1 \$2;
#X obj 33 191 s txtsauve;
#X msg 33 96 40;
#X obj 118 80 r gen3j;
#X connect 0 0 4 0;
#X connect 1 0 2 0;
#X connect 2 0 3 0;
#X connect 4 0 1 0;
#X connect 5 0 1 1;
#X restore 654 647 pd gen3j;
#N canvas 651 724 226 270 gen3k 0;
#X obj 33 61 inlet;
#X obj 33 127 pack \$1 \$2;
#X msg 33 158 add \$1 \$2;
#X obj 33 191 s txtsauve;
#X msg 33 96 41;
#X obj 118 80 r gen3k;
#X connect 0 0 4 0;
#X connect 1 0 2 0;
#X connect 2 0 3 0;
#X connect 4 0 1 0;
#X connect 5 0 1 1;
#X restore 642 666 pd gen3k;
#N canvas 655 745 226 270 gen3l 0;
#X obj 33 61 inlet;
#X obj 33 127 pack \$1 \$2;
#X msg 33 158 add \$1 \$2;
#X obj 33 191 s txtsauve;
#X msg 33 96 42;
#X obj 118 80 r gen3l;
#X connect 0 0 4 0;
#X connect 1 0 2 0;
#X connect 2 0 3 0;
#X connect 4 0 1 0;
#X connect 5 0 1 1;
#X restore 629 685 pd gen3l;
#N canvas 655 745 226 270 gen3m 0;
#X obj 33 61 inlet;
#X obj 33 127 pack \$1 \$2;
#X msg 33 158 add \$1 \$2;
#X obj 33 191 s txtsauve;
#X msg 33 95 43;
#X obj 118 80 r gen3m;
#X connect 0 0 4 0;
#X connect 1 0 2 0;
#X connect 2 0 3 0;
#X connect 4 0 1 0;
#X connect 5 0 1 1;
#X restore 616 704 pd gen3m;
#N canvas 659 766 226 270 gen3n 0;
#X obj 33 61 inlet;
#X obj 33 127 pack \$1 \$2;
#X msg 33 158 add \$1 \$2;
#X obj 33 191 s txtsauve;
#X msg 33 96 44;
#X obj 118 80 r gen3n;
#X connect 0 0 4 0;
#X connect 1 0 2 0;
#X connect 2 0 3 0;
#X connect 4 0 1 0;
#X connect 5 0 1 1;
#X restore 598 722 pd gen3n;
#N canvas 659 766 226 270 gen3o 0;
#X obj 33 61 inlet;
#X obj 33 127 pack \$1 \$2;
#X msg 33 158 add \$1 \$2;
#X obj 33 191 s txtsauve;
#X msg 33 96 45;
#X obj 118 80 r gen3o;
#X connect 0 0 4 0;
#X connect 1 0 2 0;
#X connect 2 0 3 0;
#X connect 4 0 1 0;
#X connect 5 0 1 1;
#X restore 587 741 pd gen3o;
#X obj 876 446 t b b b b b b b b b b b b b b b b;
#N canvas 659 766 226 270 gen4a 0;
#X obj 33 61 inlet;
#X obj 33 127 pack \$1 \$2;
#X msg 33 158 add \$1 \$2;
#X obj 33 191 s txtsauve;
#X msg 33 96 46;
#X obj 118 80 r gen4a;
#X connect 0 0 4 0;
#X connect 1 0 2 0;
#X connect 2 0 3 0;
#X connect 4 0 1 0;
#X connect 5 0 1 1;
#X restore 1169 470 pd gen4a;
#N canvas 663 787 226 270 gen4b 0;
#X obj 33 61 inlet;
#X obj 33 127 pack \$1 \$2;
#X msg 33 158 add \$1 \$2;
#X obj 33 191 s txtsauve;
#X msg 34 96 47;
#X obj 118 80 r gen4b;
#X connect 0 0 4 0;
#X connect 1 0 2 0;
#X connect 2 0 3 0;
#X connect 4 0 1 0;
#X connect 5 0 1 1;
#X restore 1160 489 pd gen4b;
#N canvas 663 787 226 270 gen4c 0;
#X obj 33 61 inlet;
#X obj 33 127 pack \$1 \$2;
#X msg 33 158 add \$1 \$2;
#X obj 33 191 s txtsauve;
#X msg 33 96 48;
#X obj 118 80 r gen4c;
#X connect 0 0 4 0;
#X connect 1 0 2 0;
#X connect 2 0 3 0;
#X connect 4 0 1 0;
#X connect 5 0 1 1;
#X restore 1138 508 pd gen4c;
#N canvas 671 829 226 270 gen4d 0;
#X obj 33 61 inlet;
#X obj 33 127 pack \$1 \$2;
#X msg 33 158 add \$1 \$2;
#X obj 33 191 s txtsauve;
#X msg 33 96 49;
#X obj 119 80 r gen4d;
#X connect 0 0 4 0;
#X connect 1 0 2 0;
#X connect 2 0 3 0;
#X connect 4 0 1 0;
#X connect 5 0 1 1;
#X restore 1126 527 pd gen4d;
#N canvas 663 787 226 270 gen4e 0;
#X obj 33 61 inlet;
#X obj 33 127 pack \$1 \$2;
#X msg 33 158 add \$1 \$2;
#X obj 33 191 s txtsauve;
#X msg 33 96 50;
#X obj 120 80 r gen4e;
#X connect 0 0 4 0;
#X connect 1 0 2 0;
#X connect 2 0 3 0;
#X connect 4 0 1 0;
#X connect 5 0 1 1;
#X restore 1109 545 pd gen4e;
#N canvas 675 844 226 270 gen4f 0;
#X obj 33 61 inlet;
#X obj 33 127 pack \$1 \$2;
#X msg 33 158 add \$1 \$2;
#X obj 33 191 s txtsauve;
#X msg 33 96 51;
#X obj 118 80 r gen4f;
#X connect 0 0 4 0;
#X connect 1 0 2 0;
#X connect 2 0 3 0;
#X connect 4 0 1 0;
#X connect 5 0 1 1;
#X restore 1093 565 pd gen4f;
#N canvas 663 787 226 270 gen4g 0;
#X obj 33 61 inlet;
#X obj 33 127 pack \$1 \$2;
#X msg 33 158 add \$1 \$2;
#X obj 33 191 s txtsauve;
#X msg 33 96 52;
#X obj 118 80 r gen4g;
#X connect 0 0 4 0;
#X connect 1 0 2 0;
#X connect 2 0 3 0;
#X connect 4 0 1 0;
#X connect 5 0 1 1;
#X restore 1074 584 pd gen4g;
#N canvas 663 787 226 270 gen4h 0;
#X obj 33 61 inlet;
#X obj 33 127 pack \$1 \$2;
#X msg 33 158 add \$1 \$2;
#X obj 33 191 s txtsauve;
#X msg 33 96 53;
#X obj 118 80 r gen4h;
#X connect 0 0 4 0;
#X connect 1 0 2 0;
#X connect 2 0 3 0;
#X connect 4 0 1 0;
#X connect 5 0 1 1;
#X restore 1057 603 pd gen4h;
#N canvas 659 766 226 270 gen4i 0;
#X obj 33 61 inlet;
#X obj 33 127 pack \$1 \$2;
#X msg 33 158 add \$1 \$2;
#X obj 33 191 s txtsauve;
#X msg 33 96 54;
#X obj 118 81 r gen4i;
#X connect 0 0 4 0;
#X connect 1 0 2 0;
#X connect 2 0 3 0;
#X connect 4 0 1 0;
#X connect 5 0 1 1;
#X restore 1043 622 pd gen4i;
#N canvas 659 766 226 270 gen4j 0;
#X obj 33 61 inlet;
#X obj 33 127 pack \$1 \$2;
#X msg 33 158 add \$1 \$2;
#X obj 33 191 s txtsauve;
#X msg 33 96 55;
#X obj 118 80 r gen4j;
#X connect 0 0 4 0;
#X connect 1 0 2 0;
#X connect 2 0 3 0;
#X connect 4 0 1 0;
#X connect 5 0 1 1;
#X restore 1029 641 pd gen4j;
#N canvas 655 745 226 270 gen4k 0;
#X obj 33 61 inlet;
#X obj 33 127 pack \$1 \$2;
#X msg 33 158 add \$1 \$2;
#X obj 33 191 s txtsauve;
#X msg 33 96 56;
#X obj 118 80 r gen4k;
#X connect 0 0 4 0;
#X connect 1 0 2 0;
#X connect 2 0 3 0;
#X connect 4 0 1 0;
#X connect 5 0 1 1;
#X restore 1017 660 pd gen4k;
#N canvas 659 766 226 270 gen4l 0;
#X obj 33 61 inlet;
#X obj 33 127 pack \$1 \$2;
#X msg 33 158 add \$1 \$2;
#X obj 33 191 s txtsauve;
#X msg 33 96 57;
#X obj 118 80 r gen4l;
#X connect 0 0 4 0;
#X connect 1 0 2 0;
#X connect 2 0 3 0;
#X connect 4 0 1 0;
#X connect 5 0 1 1;
#X restore 1004 679 pd gen4l;
#N canvas 659 766 226 270 gen4m 0;
#X obj 33 61 inlet;
#X obj 33 127 pack \$1 \$2;
#X msg 33 158 add \$1 \$2;
#X obj 33 191 s txtsauve;
#X msg 33 95 58;
#X obj 118 80 r gen4m;
#X connect 0 0 4 0;
#X connect 1 0 2 0;
#X connect 2 0 3 0;
#X connect 4 0 1 0;
#X connect 5 0 1 1;
#X restore 991 698 pd gen4m;
#N canvas 663 787 226 270 gen4n 0;
#X obj 33 61 inlet;
#X obj 33 127 pack \$1 \$2;
#X msg 33 158 add \$1 \$2;
#X obj 33 191 s txtsauve;
#X msg 33 96 59;
#X obj 118 80 r gen4n;
#X connect 0 0 4 0;
#X connect 1 0 2 0;
#X connect 2 0 3 0;
#X connect 4 0 1 0;
#X connect 5 0 1 1;
#X restore 973 716 pd gen4n;
#N canvas 659 766 226 270 gen4o 0;
#X obj 33 61 inlet;
#X obj 33 127 pack \$1 \$2;
#X msg 33 158 add \$1 \$2;
#X obj 33 191 s txtsauve;
#X msg 33 96 60;
#X obj 118 80 r gen4o;
#X connect 0 0 4 0;
#X connect 1 0 2 0;
#X connect 2 0 3 0;
#X connect 4 0 1 0;
#X connect 5 0 1 1;
#X restore 962 735 pd gen4o;
#X obj 158 836 t b b b b b b b b b b b b b b b b b b b b b b b b b
b b b b;
#N canvas 420 682 226 270 mod1a 0;
#X obj 33 61 inlet;
#X obj 33 127 pack \$1 \$2;
#X msg 33 158 add \$1 \$2;
#X obj 33 191 s txtsauve;
#X obj 118 80 r mod1a;
#X msg 33 96 61;
#X connect 0 0 5 0;
#X connect 1 0 2 0;
#X connect 2 0 3 0;
#X connect 4 0 1 1;
#X connect 5 0 1 0;
#X restore 683 861 pd mod1a;
#N canvas 432 745 226 270 mod1c 0;
#X obj 33 61 inlet;
#X obj 33 127 pack \$1 \$2;
#X msg 33 158 add \$1 \$2;
#X obj 33 191 s txtsauve;
#X msg 33 96 63;
#X obj 118 80 r mod1c;
#X connect 0 0 4 0;
#X connect 1 0 2 0;
#X connect 2 0 3 0;
#X connect 4 0 1 0;
#X connect 5 0 1 1;
#X restore 669 899 pd mod1c;
#N canvas 428 724 226 270 mod1b 0;
#X obj 33 61 inlet;
#X obj 33 127 pack \$1 \$2;
#X msg 33 158 add \$1 \$2;
#X obj 33 191 s txtsauve;
#X msg 33 96 62;
#X obj 118 80 r mod1b;
#X connect 0 0 4 0;
#X connect 1 0 2 0;
#X connect 2 0 3 0;
#X connect 4 0 1 0;
#X connect 5 0 1 1;
#X restore 678 880 pd mod1b;
#N canvas 436 766 226 270 mod1d 0;
#X obj 33 61 inlet;
#X obj 33 127 pack \$1 \$2;
#X msg 33 158 add \$1 \$2;
#X obj 33 191 s txtsauve;
#X msg 33 96 64;
#X obj 118 80 r mod1d;
#X connect 0 0 4 0;
#X connect 1 0 2 0;
#X connect 2 0 3 0;
#X connect 4 0 1 0;
#X connect 5 0 1 1;
#X restore 662 918 pd mod1d;
#N canvas 436 766 226 270 mod1e 0;
#X obj 33 61 inlet;
#X obj 33 127 pack \$1 \$2;
#X msg 33 158 add \$1 \$2;
#X obj 33 191 s txtsauve;
#X msg 33 96 65;
#X obj 118 80 r mod1e;
#X connect 0 0 4 0;
#X connect 1 0 2 0;
#X connect 2 0 3 0;
#X connect 4 0 1 0;
#X connect 5 0 1 1;
#X restore 653 937 pd mod1e;
#N canvas 444 808 226 270 mod1f 0;
#X obj 33 61 inlet;
#X obj 33 127 pack \$1 \$2;
#X msg 33 158 add \$1 \$2;
#X obj 33 191 s txtsauve;
#X msg 33 96 66;
#X obj 118 80 r mod1f;
#X connect 0 0 4 0;
#X connect 1 0 2 0;
#X connect 2 0 3 0;
#X connect 4 0 1 0;
#X connect 5 0 1 1;
#X restore 644 956 pd mod1f;
#N canvas 452 844 226 270 mod1g 0;
#X obj 33 61 inlet;
#X obj 33 127 pack \$1 \$2;
#X msg 33 158 add \$1 \$2;
#X obj 33 191 s txtsauve;
#X msg 33 96 67;
#X obj 118 80 r mod1g;
#X connect 0 0 4 0;
#X connect 1 0 2 0;
#X connect 2 0 3 0;
#X connect 4 0 1 0;
#X connect 5 0 1 1;
#X restore 638 975 pd mod1g;
#N canvas 428 724 226 270 mod2a 0;
#X obj 33 61 inlet;
#X obj 33 127 pack \$1 \$2;
#X msg 33 158 add \$1 \$2;
#X obj 33 191 s txtsauve;
#X msg 33 96 68;
#X obj 118 80 r mod2a;
#X connect 0 0 4 0;
#X connect 1 0 2 0;
#X connect 2 0 3 0;
#X connect 4 0 1 0;
#X connect 5 0 1 1;
#X restore 558 864 pd mod2a;
#N canvas 432 745 226 270 mod2b 0;
#X obj 33 61 inlet;
#X obj 33 127 pack \$1 \$2;
#X msg 33 158 add \$1 \$2;
#X obj 33 191 s txtsauve;
#X msg 33 96 69;
#X obj 118 80 r mod2b;
#X connect 0 0 4 0;
#X connect 1 0 2 0;
#X connect 2 0 3 0;
#X connect 4 0 1 0;
#X connect 5 0 1 1;
#X restore 553 883 pd mod2b;
#N canvas 440 787 226 270 mod2c 0;
#X obj 33 61 inlet;
#X obj 33 127 pack \$1 \$2;
#X msg 33 158 add \$1 \$2;
#X obj 33 191 s txtsauve;
#X msg 33 96 70;
#X obj 118 80 r mod2c;
#X connect 0 0 4 0;
#X connect 1 0 2 0;
#X connect 2 0 3 0;
#X connect 4 0 1 0;
#X connect 5 0 1 1;
#X restore 544 902 pd mod2c;
#N canvas 440 787 226 270 mod2d 0;
#X obj 33 61 inlet;
#X obj 33 127 pack \$1 \$2;
#X msg 33 158 add \$1 \$2;
#X obj 33 191 s txtsauve;
#X msg 33 96 71;
#X obj 118 80 r mod2d;
#X connect 0 0 4 0;
#X connect 1 0 2 0;
#X connect 2 0 3 0;
#X connect 4 0 1 0;
#X connect 5 0 1 1;
#X restore 537 921 pd mod2d;
#N canvas 440 787 226 270 mod2e 0;
#X obj 33 61 inlet;
#X obj 33 127 pack \$1 \$2;
#X msg 33 158 add \$1 \$2;
#X obj 33 191 s txtsauve;
#X msg 33 96 72;
#X obj 118 80 r mod2e;
#X connect 0 0 4 0;
#X connect 1 0 2 0;
#X connect 2 0 3 0;
#X connect 4 0 1 0;
#X connect 5 0 1 1;
#X restore 528 940 pd mod2e;
#N canvas 452 844 226 270 mod2f 0;
#X obj 33 61 inlet;
#X obj 33 127 pack \$1 \$2;
#X msg 33 158 add \$1 \$2;
#X obj 33 191 s txtsauve;
#X msg 33 96 73;
#X obj 118 80 r mod2f;
#X connect 0 0 4 0;
#X connect 1 0 2 0;
#X connect 2 0 3 0;
#X connect 4 0 1 0;
#X connect 5 0 1 1;
#X restore 519 959 pd mod2f;
#N canvas 456 844 226 270 mod2g 0;
#X obj 33 61 inlet;
#X obj 33 127 pack \$1 \$2;
#X msg 33 158 add \$1 \$2;
#X obj 33 191 s txtsauve;
#X msg 33 96 74;
#X obj 118 80 r mod2g;
#X connect 0 0 4 0;
#X connect 1 0 2 0;
#X connect 2 0 3 0;
#X connect 4 0 1 0;
#X connect 5 0 1 1;
#X restore 512 978 pd mod2g;
#N canvas 440 787 226 270 mod3a 0;
#X obj 33 61 inlet;
#X obj 33 127 pack \$1 \$2;
#X msg 33 158 add \$1 \$2;
#X obj 33 191 s txtsauve;
#X msg 33 96 75;
#X obj 118 80 r mod3a;
#X connect 0 0 4 0;
#X connect 1 0 2 0;
#X connect 2 0 3 0;
#X connect 4 0 1 0;
#X connect 5 0 1 1;
#X restore 423 865 pd mod3a;
#N canvas 440 787 226 270 mod3b 0;
#X obj 33 61 inlet;
#X obj 33 127 pack \$1 \$2;
#X msg 33 158 add \$1 \$2;
#X obj 33 191 s txtsauve;
#X msg 33 96 76;
#X obj 118 80 r mod3b;
#X connect 0 0 4 0;
#X connect 1 0 2 0;
#X connect 2 0 3 0;
#X connect 4 0 1 0;
#X connect 5 0 1 1;
#X restore 419 884 pd mod3b;
#N canvas 448 829 226 270 mod3c 0;
#X obj 33 61 inlet;
#X obj 33 127 pack \$1 \$2;
#X msg 33 158 add \$1 \$2;
#X obj 33 191 s txtsauve;
#X msg 33 96 77;
#X obj 118 80 r mod3c;
#X connect 0 0 4 0;
#X connect 1 0 2 0;
#X connect 2 0 3 0;
#X connect 4 0 1 0;
#X connect 5 0 1 1;
#X restore 409 903 pd mod3c;
#N canvas 448 829 226 270 mod3d 0;
#X obj 33 61 inlet;
#X obj 33 127 pack \$1 \$2;
#X msg 33 158 add \$1 \$2;
#X obj 33 191 s txtsauve;
#X msg 33 96 78;
#X obj 118 80 r mod3d;
#X connect 0 0 4 0;
#X connect 1 0 2 0;
#X connect 2 0 3 0;
#X connect 4 0 1 0;
#X connect 5 0 1 1;
#X restore 402 922 pd mod3d;
#N canvas 452 844 226 270 mod3e 0;
#X obj 33 61 inlet;
#X obj 33 127 pack \$1 \$2;
#X msg 33 158 add \$1 \$2;
#X obj 33 191 s txtsauve;
#X msg 33 96 79;
#X obj 118 80 r mod3e;
#X connect 0 0 4 0;
#X connect 1 0 2 0;
#X connect 2 0 3 0;
#X connect 4 0 1 0;
#X connect 5 0 1 1;
#X restore 393 941 pd mod3e;
#N canvas 464 844 226 270 mod3f 0;
#X obj 33 61 inlet;
#X obj 33 127 pack \$1 \$2;
#X msg 33 158 add \$1 \$2;
#X obj 33 191 s txtsauve;
#X msg 33 96 80;
#X obj 118 80 r mod3f;
#X connect 0 0 4 0;
#X connect 1 0 2 0;
#X connect 2 0 3 0;
#X connect 4 0 1 0;
#X connect 5 0 1 1;
#X restore 384 960 pd mod3f;
#N canvas 464 844 226 270 mod3g 0;
#X obj 33 61 inlet;
#X obj 33 127 pack \$1 \$2;
#X msg 33 158 add \$1 \$2;
#X obj 33 191 s txtsauve;
#X msg 33 96 81;
#X obj 118 80 r mod3g;
#X connect 0 0 4 0;
#X connect 1 0 2 0;
#X connect 2 0 3 0;
#X connect 4 0 1 0;
#X connect 5 0 1 1;
#X restore 377 979 pd mod3g;
#N canvas 452 844 226 270 mod4a 0;
#X obj 33 61 inlet;
#X obj 33 127 pack \$1 \$2;
#X msg 33 158 add \$1 \$2;
#X obj 33 191 s txtsauve;
#X msg 32 96 82;
#X obj 118 80 r mod4a;
#X connect 0 0 4 0;
#X connect 1 0 2 0;
#X connect 2 0 3 0;
#X connect 4 0 1 0;
#X connect 5 0 1 1;
#X restore 285 863 pd mod4a;
#N canvas 448 829 226 270 mod4b 0;
#X obj 33 61 inlet;
#X obj 33 127 pack \$1 \$2;
#X msg 33 158 add \$1 \$2;
#X obj 33 191 s txtsauve;
#X obj 118 80 r mod4b;
#X msg 33 96 83;
#X connect 0 0 5 0;
#X connect 1 0 2 0;
#X connect 2 0 3 0;
#X connect 4 0 1 1;
#X connect 5 0 1 0;
#X restore 281 882 pd mod4b;
#N canvas 456 844 226 270 mod4c 0;
#X obj 33 61 inlet;
#X obj 33 127 pack \$1 \$2;
#X msg 33 158 add \$1 \$2;
#X obj 33 191 s txtsauve;
#X msg 33 96 84;
#X obj 118 80 r mod4c;
#X connect 0 0 4 0;
#X connect 1 0 2 0;
#X connect 2 0 3 0;
#X connect 4 0 1 0;
#X connect 5 0 1 1;
#X restore 271 901 pd mod4c;
#N canvas 456 844 226 270 mod4d 0;
#X obj 33 61 inlet;
#X obj 33 127 pack \$1 \$2;
#X msg 33 158 add \$1 \$2;
#X obj 33 191 s txtsauve;
#X msg 33 96 85;
#X obj 118 80 r mod4d;
#X connect 0 0 4 0;
#X connect 1 0 2 0;
#X connect 2 0 3 0;
#X connect 4 0 1 0;
#X connect 5 0 1 1;
#X restore 264 920 pd mod4d;
#N canvas 460 844 226 270 mod4e 0;
#X obj 33 61 inlet;
#X obj 33 127 pack \$1 \$2;
#X msg 33 158 add \$1 \$2;
#X obj 33 191 s txtsauve;
#X msg 33 96 86;
#X obj 118 80 r mod4e;
#X connect 0 0 4 0;
#X connect 1 0 2 0;
#X connect 2 0 3 0;
#X connect 4 0 1 0;
#X connect 5 0 1 1;
#X restore 255 939 pd mod4e;
#N canvas 472 844 226 270 mod4f 0;
#X obj 33 61 inlet;
#X obj 33 127 pack \$1 \$2;
#X msg 33 158 add \$1 \$2;
#X obj 33 191 s txtsauve;
#X msg 33 96 87;
#X obj 118 80 r mod4f;
#X connect 0 0 4 0;
#X connect 1 0 2 0;
#X connect 2 0 3 0;
#X connect 4 0 1 0;
#X connect 5 0 1 1;
#X restore 246 958 pd mod4f;
#N canvas 476 844 226 270 mod4g 0;
#X obj 33 61 inlet;
#X obj 33 127 pack \$1 \$2;
#X msg 33 158 add \$1 \$2;
#X obj 33 191 s txtsauve;
#X msg 33 96 88;
#X obj 118 80 r mod4g;
#X connect 0 0 4 0;
#X connect 1 0 2 0;
#X connect 2 0 3 0;
#X connect 4 0 1 0;
#X connect 5 0 1 1;
#X restore 239 977 pd mod4g;
#X obj 933 826 t b b b b b b b b b b;
#N canvas 476 844 226 270 pan1a 0;
#X obj 33 61 inlet;
#X obj 33 127 pack \$1 \$2;
#X msg 33 158 add \$1 \$2;
#X obj 33 191 s txtsauve;
#X msg 33 96 89;
#X obj 118 80 r pan1a;
#X connect 0 0 4 0;
#X connect 1 0 2 0;
#X connect 2 0 3 0;
#X connect 4 0 1 0;
#X connect 5 0 1 1;
#X restore 1121 857 pd pan1a;
#N canvas 476 844 226 270 pan1b 0;
#X obj 33 61 inlet;
#X obj 33 127 pack \$1 \$2;
#X msg 33 158 add \$1 \$2;
#X obj 33 191 s txtsauve;
#X msg 33 96 90;
#X obj 118 80 r pan1b;
#X connect 0 0 4 0;
#X connect 1 0 2 0;
#X connect 2 0 3 0;
#X connect 4 0 1 0;
#X connect 5 0 1 1;
#X restore 1115 876 pd pan1b;
#N canvas 488 844 226 270 pan1c 0;
#X obj 33 61 inlet;
#X obj 33 127 pack \$1 \$2;
#X msg 33 158 add \$1 \$2;
#X obj 33 191 s txtsauve;
#X msg 33 96 91;
#X obj 118 80 r pan1c;
#X connect 0 0 4 0;
#X connect 1 0 2 0;
#X connect 2 0 3 0;
#X connect 4 0 1 0;
#X connect 5 0 1 1;
#X restore 1111 895 pd pan1c;
#N canvas 484 844 226 270 pan2a 0;
#X obj 33 61 inlet;
#X obj 33 127 pack \$1 \$2;
#X msg 33 158 add \$1 \$2;
#X obj 33 191 s txtsauve;
#X msg 33 96 92;
#X obj 118 80 r pan2a;
#X connect 0 0 4 0;
#X connect 1 0 2 0;
#X connect 2 0 3 0;
#X connect 4 0 1 0;
#X connect 5 0 1 1;
#X restore 1106 914 pd pan2a;
#N canvas 484 844 226 270 pan2b 0;
#X obj 33 61 inlet;
#X obj 33 127 pack \$1 \$2;
#X msg 33 158 add \$1 \$2;
#X obj 33 191 s txtsauve;
#X msg 33 96 93;
#X obj 118 80 r pan2b;
#X connect 0 0 4 0;
#X connect 1 0 2 0;
#X connect 2 0 3 0;
#X connect 4 0 1 0;
#X connect 5 0 1 1;
#X restore 1100 933 pd pan2b;
#N canvas 480 844 226 270 fil1a 0;
#X obj 33 61 inlet;
#X obj 33 127 pack \$1 \$2;
#X msg 33 158 add \$1 \$2;
#X obj 33 191 s txtsauve;
#X msg 33 96 94;
#X obj 118 80 r fil1a;
#X connect 0 0 4 0;
#X connect 1 0 2 0;
#X connect 2 0 3 0;
#X connect 4 0 1 0;
#X connect 5 0 1 1;
#X restore 1091 952 pd fil1a;
#N canvas 484 844 226 270 fil1b 0;
#X obj 33 61 inlet;
#X obj 33 127 pack \$1 \$2;
#X msg 33 158 add \$1 \$2;
#X obj 33 191 s txtsauve;
#X msg 33 96 95;
#X obj 118 80 r fil1b;
#X connect 0 0 4 0;
#X connect 1 0 2 0;
#X connect 2 0 3 0;
#X connect 4 0 1 0;
#X connect 5 0 1 1;
#X restore 1089 971 pd fil1b;
#N canvas 492 844 226 270 mvl 0;
#X obj 33 61 inlet;
#X obj 33 127 pack \$1 \$2;
#X msg 33 158 add \$1 \$2;
#X obj 33 191 s txtsauve;
#X msg 33 96 96;
#X obj 118 80 r mvl;
#X connect 0 0 4 0;
#X connect 1 0 2 0;
#X connect 2 0 3 0;
#X connect 4 0 1 0;
#X connect 5 0 1 1;
#X restore 1084 990 pd mvl;
#X connect 0 0 31 0;
#X connect 1 0 6 0;
#X connect 2 0 4 0;
#X connect 3 0 2 0;
#X connect 5 0 4 0;
#X connect 8 0 9 0;
#X connect 30 0 47 0;
#X connect 30 1 46 0;
#X connect 30 2 45 0;
#X connect 30 3 44 0;
#X connect 30 4 43 0;
#X connect 30 5 42 0;
#X connect 30 6 41 0;
#X connect 30 7 40 0;
#X connect 30 8 39 0;
#X connect 30 9 38 0;
#X connect 30 10 37 0;
#X connect 30 11 36 0;
#X connect 30 12 35 0;
#X connect 30 13 34 0;
#X connect 30 14 33 0;
#X connect 30 15 32 0;
#X connect 31 0 30 0;
#X connect 31 1 29 0;
#X connect 31 2 28 0;
#X connect 31 3 27 0;
#X connect 31 4 26 0;
#X connect 31 5 25 0;
#X connect 31 6 24 0;
#X connect 31 7 23 0;
#X connect 31 8 22 0;
#X connect 31 9 21 0;
#X connect 31 10 20 0;
#X connect 31 11 19 0;
#X connect 31 12 18 0;
#X connect 31 13 17 0;
#X connect 31 14 16 0;
#X connect 31 15 15 0;
#X connect 31 16 1 0;
#X connect 47 0 63 0;
#X connect 47 1 62 0;
#X connect 47 2 61 0;
#X connect 47 3 60 0;
#X connect 47 4 59 0;
#X connect 47 5 58 0;
#X connect 47 6 57 0;
#X connect 47 7 56 0;
#X connect 47 8 55 0;
#X connect 47 9 54 0;
#X connect 47 10 53 0;
#X connect 47 11 52 0;
#X connect 47 12 51 0;
#X connect 47 13 50 0;
#X connect 47 14 49 0;
#X connect 47 15 48 0;
#X connect 63 0 79 0;
#X connect 63 1 78 0;
#X connect 63 2 77 0;
#X connect 63 3 76 0;
#X connect 63 4 75 0;
#X connect 63 5 74 0;
#X connect 63 6 73 0;
#X connect 63 7 72 0;
#X connect 63 8 71 0;
#X connect 63 9 70 0;
#X connect 63 10 69 0;
#X connect 63 11 68 0;
#X connect 63 12 67 0;
#X connect 63 13 66 0;
#X connect 63 14 65 0;
#X connect 63 15 64 0;
#X connect 79 0 108 0;
#X connect 79 1 107 0;
#X connect 79 2 106 0;
#X connect 79 3 105 0;
#X connect 79 4 104 0;
#X connect 79 5 103 0;
#X connect 79 6 102 0;
#X connect 79 7 101 0;
#X connect 79 8 100 0;
#X connect 79 9 99 0;
#X connect 79 10 98 0;
#X connect 79 11 97 0;
#X connect 79 12 96 0;
#X connect 79 13 95 0;
#X connect 79 14 94 0;
#X connect 79 15 93 0;
#X connect 79 16 92 0;
#X connect 79 17 91 0;
#X connect 79 18 90 0;
#X connect 79 19 89 0;
#X connect 79 20 88 0;
#X connect 79 21 87 0;
#X connect 79 22 86 0;
#X connect 79 23 85 0;
#X connect 79 24 84 0;
#X connect 79 25 83 0;
#X connect 79 26 81 0;
#X connect 79 27 82 0;
#X connect 79 28 80 0;
#X connect 108 0 3 0;
#X connect 108 1 10 0;
#X connect 108 2 116 0;
#X connect 108 3 115 0;
#X connect 108 4 114 0;
#X connect 108 5 113 0;
#X connect 108 6 112 0;
#X connect 108 7 111 0;
#X connect 108 8 110 0;
#X connect 108 9 109 0;
#X restore 170 61 pd sauvegarde;
#N canvas 82 108 1410 701 chargement 0;
#X obj 166 132 textfile;
#X msg 78 155 rewind;
#X obj 38 184 until;
#X msg 166 100 read \$1;
#X obj 166 74 openpanel;
#X obj 166 46 r ouvrirpres;
#X msg 1762 235 \; presetnom label \$1;
#X text 0 22 systeme permettant le chargement du preset;
#X text 1727 293 (recupere la valeur dont l'en-tete n'est pas un nombre)
;
#X text 1729 275 affiche le nom du preset dans un canvas;
#X text 248 117 chaque liste (1 [valeur] \; 2 [valeur] \; ...)est routee
sur le controleur qui lui est associe;
#X obj 38 129 t b b a;
#X obj 164 165 route 1 2 3 4 5 6 7 8 9 10 11 12 13 14 15 16 17 18 19
20 21 22 23 24 25 26 27 28 29;
#X obj 707 165 route 30 31 32 33 34 35 36 37 38 39 40 41 42 43 44 45
46 47 48 49 50 51 52 53 54 55 56 57 58 59 60 61 62 63 64 65 66;
#X obj 38 89 print;
#X obj 261 76 r ftouches;
#X obj 1243 164 route 67 68 69 70 71 72 73 74 75 76 77 78 79 80 81
82 83 84 85 86 87 88 89 90 91 92 93 94 95 96;
#X obj 179 225 s gen1a;
#X obj 189 245 s gen1b;
#X obj 200 263 s gen1c;
#X obj 209 284 s gen1d;
#X obj 218 303 s gen1e;
#X obj 229 322 s gen1f;
#X obj 240 341 s gen1g;
#X obj 251 360 s gen1h;
#X obj 257 379 s gen1i;
#X obj 261 399 s gen1j;
#X obj 268 417 s gen1k;
#X obj 274 437 s gen1l;
#X obj 283 457 s gen1m;
#X obj 287 476 s gen1n;
#X obj 300 495 s gen1o;
#X msg 38 156 97;
#X obj 508 245 s gen2a;
#X obj 518 269 s gen2b;
#X obj 517 290 s gen2c;
#X obj 519 312 s gen2d;
#X obj 522 333 s gen2e;
#X obj 522 351 s gen2f;
#X obj 525 369 s gen2g;
#X obj 527 386 s gen2h;
#X obj 539 406 s gen2i;
#X obj 546 429 s gen2j;
#X obj 553 448 s gen2k;
#X obj 559 467 s gen2l;
#X obj 566 488 s gen2m;
#X obj 580 508 s gen2n;
#X obj 699 225 s gen2o;
#X obj 703 243 s gen3a;
#X obj 707 261 s gen3b;
#X obj 715 280 s gen3c;
#X obj 728 299 s gen3d;
#X obj 723 320 s gen3e;
#X obj 733 345 s gen3f;
#X obj 729 368 s gen3g;
#X obj 740 387 s gen3h;
#X obj 748 407 s gen3i;
#X obj 749 428 s gen3j;
#X obj 756 446 s gen3k;
#X obj 764 465 s gen3l;
#X obj 782 485 s gen3m;
#X obj 790 505 s gen3n;
#X obj 795 525 s gen3o;
#X obj 1090 248 s gen4a;
#X obj 1081 267 s gen4b;
#X obj 1059 286 s gen4c;
#X obj 1047 305 s gen4d;
#X obj 1030 323 s gen4e;
#X obj 1014 343 s gen4f;
#X obj 995 362 s gen4g;
#X obj 978 381 s gen4h;
#X obj 964 400 s gen4i;
#X obj 950 419 s gen4j;
#X obj 938 438 s gen4k;
#X obj 925 457 s gen4l;
#X obj 912 476 s gen4m;
#X obj 894 494 s gen4n;
#X obj 883 513 s gen4o;
#X obj 1168 306 s mod1a;
#X obj 1163 325 s mod1b;
#X obj 1154 344 s mod1c;
#X obj 1165 361 s mod1d;
#X obj 1155 382 s mod1e;
#X obj 1158 406 s mod1f;
#X obj 1299 277 s mod1g;
#X obj 1294 297 s mod2a;
#X obj 1289 315 s mod2b;
#X obj 1280 335 s mod2c;
#X obj 1273 354 s mod2d;
#X obj 1264 373 s mod2e;
#X obj 1255 392 s mod2f;
#X obj 1249 411 s mod2g;
#X obj 1428 254 s mod3a;
#X obj 1425 273 s mod3b;
#X obj 1415 292 s mod3c;
#X obj 1406 310 s mod3d;
#X obj 1399 330 s mod3e;
#X obj 1390 349 s mod3f;
#X obj 1383 368 s mod3g;
#X obj 1544 268 s mod4a;
#X obj 1534 286 s mod4b;
#X obj 1530 306 s mod4c;
#X obj 1523 325 s mod4d;
#X obj 1514 344 s mod4e;
#X obj 1505 363 s mod4f;
#X obj 1498 382 s mod4g;
#X obj 1650 278 s pan1a;
#X obj 1647 297 s pan1b;
#X obj 1643 316 s pan1c;
#X obj 1638 335 s pan2a;
#X obj 1632 354 s pan2b;
#X obj 1623 373 s fil1a;
#X obj 1621 392 s fil1b;
#X obj 1616 410 s mvl;
#X connect 0 0 12 0;
#X connect 1 0 0 0;
#X connect 2 0 0 0;
#X connect 3 0 11 0;
#X connect 4 0 3 0;
#X connect 4 0 14 0;
#X connect 5 0 4 0;
#X connect 11 0 32 0;
#X connect 11 1 1 0;
#X connect 11 2 0 0;
#X connect 12 0 17 0;
#X connect 12 1 18 0;
#X connect 12 2 19 0;
#X connect 12 3 20 0;
#X connect 12 4 21 0;
#X connect 12 5 22 0;
#X connect 12 6 23 0;
#X connect 12 7 24 0;
#X connect 12 8 25 0;
#X connect 12 9 26 0;
#X connect 12 10 27 0;
#X connect 12 11 28 0;
#X connect 12 12 29 0;
#X connect 12 13 30 0;
#X connect 12 14 31 0;
#X connect 12 15 33 0;
#X connect 12 16 34 0;
#X connect 12 17 35 0;
#X connect 12 18 36 0;
#X connect 12 19 37 0;
#X connect 12 20 38 0;
#X connect 12 21 39 0;
#X connect 12 22 40 0;
#X connect 12 23 41 0;
#X connect 12 24 42 0;
#X connect 12 25 43 0;
#X connect 12 26 44 0;
#X connect 12 27 45 0;
#X connect 12 28 46 0;
#X connect 12 29 13 0;
#X connect 13 0 47 0;
#X connect 13 1 48 0;
#X connect 13 2 49 0;
#X connect 13 3 50 0;
#X connect 13 4 51 0;
#X connect 13 5 52 0;
#X connect 13 6 53 0;
#X connect 13 7 54 0;
#X connect 13 8 55 0;
#X connect 13 9 56 0;
#X connect 13 10 57 0;
#X connect 13 11 58 0;
#X connect 13 12 59 0;
#X connect 13 13 60 0;
#X connect 13 14 61 0;
#X connect 13 15 62 0;
#X connect 13 16 63 0;
#X connect 13 17 64 0;
#X connect 13 18 65 0;
#X connect 13 19 66 0;
#X connect 13 20 67 0;
#X connect 13 21 68 0;
#X connect 13 22 69 0;
#X connect 13 23 70 0;
#X connect 13 24 71 0;
#X connect 13 25 72 0;
#X connect 13 26 73 0;
#X connect 13 27 74 0;
#X connect 13 28 75 0;
#X connect 13 29 76 0;
#X connect 13 30 77 0;
#X connect 13 31 78 0;
#X connect 13 32 79 0;
#X connect 13 33 80 0;
#X connect 13 34 81 0;
#X connect 13 35 82 0;
#X connect 13 36 83 0;
#X connect 13 37 16 0;
#X connect 15 0 3 0;
#X connect 16 0 84 0;
#X connect 16 1 85 0;
#X connect 16 2 86 0;
#X connect 16 3 87 0;
#X connect 16 4 88 0;
#X connect 16 5 89 0;
#X connect 16 6 90 0;
#X connect 16 7 91 0;
#X connect 16 8 92 0;
#X connect 16 9 93 0;
#X connect 16 10 94 0;
#X connect 16 11 95 0;
#X connect 16 12 96 0;
#X connect 16 13 97 0;
#X connect 16 14 98 0;
#X connect 16 15 99 0;
#X connect 16 16 100 0;
#X connect 16 17 101 0;
#X connect 16 18 102 0;
#X connect 16 19 103 0;
#X connect 16 20 104 0;
#X connect 16 21 105 0;
#X connect 16 22 106 0;
#X connect 16 23 107 0;
#X connect 16 24 108 0;
#X connect 16 25 109 0;
#X connect 16 26 110 0;
#X connect 16 27 111 0;
#X connect 16 28 112 0;
#X connect 16 29 113 0;
#X connect 16 30 6 0;
#X connect 32 0 2 0;
#X restore 169 87 pd chargement;
#X msg 104 277 symbol presets/preset.monster;
#X msg 116 297 symbol presets/preset.perc.tubular.bells;
#X msg 127 317 symbol presets/preset.pad.space.ballad;
#X msg 142 337 symbol presets/preset.press.and.hold;
#X msg 156 357 symbol presets/preset.squares;
#X msg 169 377 symbol presets/preset.organ.lite;
#X msg 203 417 symbol presets/preset.retro.dirty;
#X msg 187 397 symbol presets/preset.pad.space.clavinet;
#X msg 221 437 symbol presets/preset.space.stay.here;
#X msg 233 457 symbol presets/preset.just.one;
#X msg 251 477 symbol presets/preset.inharmonix;
#X msg 267 497 symbol presets/preset.flying.saucers;
#X obj 104 241 loadbang;
#X text 186 244 chargement auto preset 1;
#X connect 1 1 2 0;
#X connect 2 0 23 0;
#X connect 2 1 24 0;
#X connect 2 2 25 0;
#X connect 2 3 26 0;
#X connect 2 4 27 0;
#X connect 2 5 28 0;
#X connect 2 6 30 0;
#X connect 2 7 29 0;
#X connect 2 8 31 0;
#X connect 2 9 32 0;
#X connect 2 10 33 0;
#X connect 2 11 34 0;
#X connect 23 0 3 0;
#X connect 24 0 3 0;
#X connect 25 0 3 0;
#X connect 26 0 3 0;
#X connect 27 0 3 0;
#X connect 28 0 3 0;
#X connect 29 0 3 0;
#X connect 30 0 3 0;
#X connect 31 0 3 0;
#X connect 32 0 3 0;
#X connect 33 0 3 0;
#X connect 34 0 3 0;
#X connect 35 0 23 0;
