#N canvas 28 301 1012 407 10;
#X obj 328 -215 route 1 2 3 4 5 6 7 8 9 10;
#X obj 95 -159 unpack f f;
#X obj 173 -158 unpack f f;
#X obj 250 -157 unpack f f;
#X obj 328 -157 unpack f f;
#X obj 407 -156 unpack f f;
#X obj 486 -156 unpack f f;
#X obj 566 -156 unpack f f;
#X obj 644 -156 unpack f f;
#X obj 723 -156 unpack f f;
#X obj 803 -156 unpack f f;
#X obj 396 79 sndout;
#X text 664 -6 ici chacune des dix voix;
#X text 644 11 chaque canal contient le moteur de synthse utilise;
#X text 451 79 sortie audio;
#X text 527 -218 routage dynamique des voix;
#X obj 328 -242 midin;
#X text 371 -243 module entree midi + polyphonie;
#X obj 95 -122 algorithme;
#X obj 486 -119 algorithme;
#X obj 250 -121 algorithme;
#X obj 644 -119 algorithme;
#X obj 173 -121 algorithme;
#X obj 328 -120 algorithme;
#X obj 407 -119 algorithme;
#X obj 566 -119 algorithme;
#X obj 723 -119 algorithme;
#X obj 803 -119 algorithme;
#X connect 0 0 1 0;
#X connect 0 1 2 0;
#X connect 0 2 3 0;
#X connect 0 3 4 0;
#X connect 0 4 5 0;
#X connect 0 5 6 0;
#X connect 0 6 7 0;
#X connect 0 7 8 0;
#X connect 0 8 9 0;
#X connect 0 9 10 0;
#X connect 1 0 18 0;
#X connect 1 1 18 1;
#X connect 2 0 22 0;
#X connect 2 1 22 1;
#X connect 3 0 20 0;
#X connect 3 1 20 1;
#X connect 4 0 23 0;
#X connect 4 1 23 1;
#X connect 5 0 24 0;
#X connect 5 1 24 1;
#X connect 6 0 19 0;
#X connect 6 1 19 1;
#X connect 7 0 25 0;
#X connect 7 1 25 1;
#X connect 8 0 21 0;
#X connect 8 1 21 1;
#X connect 9 0 26 0;
#X connect 9 1 26 1;
#X connect 10 0 27 0;
#X connect 10 1 27 1;
#X connect 16 0 0 0;
#X connect 18 0 11 0;
#X connect 18 1 11 1;
#X connect 19 0 11 0;
#X connect 19 1 11 1;
#X connect 20 0 11 0;
#X connect 20 1 11 1;
#X connect 21 0 11 0;
#X connect 21 1 11 1;
#X connect 22 0 11 0;
#X connect 22 1 11 1;
#X connect 23 0 11 0;
#X connect 23 1 11 1;
#X connect 24 0 11 0;
#X connect 24 1 11 1;
#X connect 25 0 11 0;
#X connect 25 1 11 1;
#X connect 26 0 11 0;
#X connect 26 1 11 1;
#X connect 27 0 11 0;
#X connect 27 1 11 1;
