#N canvas 329 814 640 300 10;
#X obj 100 57 inlet~;
#X obj 101 140 *~;
#X obj 129 220 dac~;
#X text 105 4 module de sortie audio;
#X obj 178 57 inlet~;
#X obj 178 140 *~;
#X obj 251 112 sig~;
#X obj 203 169 env~ 10000;
#X obj 203 218 s vu;
#X obj 203 194 - 97;
#X obj 251 91 r mvl;
#X text 249 200 affiche le niveau dans le vu metre;
#X obj 307 59 ctlin 7;
#X text 338 39 reglage volume par clavier midi;
#X obj 307 109 s mvl;
#X obj 307 85 / 317.5;
#X connect 0 0 1 0;
#X connect 1 0 2 0;
#X connect 4 0 5 0;
#X connect 5 0 2 1;
#X connect 5 0 7 0;
#X connect 6 0 5 1;
#X connect 6 0 1 1;
#X connect 7 0 9 0;
#X connect 9 0 8 0;
#X connect 10 0 6 0;
#X connect 12 0 15 0;
#X connect 15 0 14 0;
