#N canvas 182 237 653 348 10;
#X obj 254 277 outlet~;
#X obj 199 277 outlet~;
#X obj 144 277 outlet~;
#X obj 89 277 outlet~;
#X obj 171 26 inlet;
#X text 232 25 frequence "porteuse";
#N canvas 51 68 1119 560 FM___ 0;
#X obj 45 36 inlet;
#X obj 136 446 outlet~;
#X text 37 11 freqence;
#X text 129 18 rapport modulante on/off;
#X text 342 13 rapport;
#X text 419 14 frq mod fixe;
#X text 635 18 rand on/off;
#X obj 177 231 osc~;
#X obj 173 143 /;
#X text 530 18 index mod;
#X obj 177 341 *~;
#X obj 173 175 spigot;
#X obj 162 38 r mod1a;
#X obj 331 34 r mod1b;
#X obj 427 35 r mod1c;
#X obj 539 41 r mod1d;
#X obj 642 39 r mod1e;
#X text 520 483 modulation de frequence et vibrato;
#X text 410 518 pour osc 1;
#X text 734 20 rand profondeur;
#X text 861 23 rand interva;
#X obj 741 41 r mod1f;
#X obj 864 42 r mod1g;
#N canvas 978 317 480 250 rand 0;
#X obj 45 25 inlet;
#X obj 69 200 outlet;
#X obj 125 27 inlet;
#X obj 204 27 inlet;
#X text 30 3 on off;
#X text 111 3 profondeur;
#X text 201 6 interva;
#X obj 69 146 random;
#X obj 69 86 metro;
#X obj 114 103 * 100;
#X obj 69 172 / 100;
#X text 108 169 car ne produit pas de nombres a virgule flottante;
#X connect 0 0 8 0;
#X connect 2 0 9 0;
#X connect 3 0 8 1;
#X connect 7 0 10 0;
#X connect 8 0 7 0;
#X connect 9 0 7 1;
#X connect 10 0 1 0;
#X restore 418 264 pd rand;
#X text 480 263 fonction random pour la modulation;
#X obj 263 299 sig~;
#X connect 0 0 8 0;
#X connect 7 0 10 0;
#X connect 8 0 11 0;
#X connect 10 0 1 0;
#X connect 11 0 7 0;
#X connect 12 0 11 1;
#X connect 13 0 8 1;
#X connect 14 0 7 0;
#X connect 15 0 25 0;
#X connect 16 0 23 0;
#X connect 21 0 23 1;
#X connect 22 0 23 2;
#X connect 23 0 25 0;
#X connect 25 0 10 1;
#X restore 88 151 pd FM___;
#N canvas 67 152 1119 560 FM___ 0;
#X obj 45 36 inlet;
#X obj 136 446 outlet~;
#X text 37 11 freqence;
#X text 129 18 rapport modulante on/off;
#X text 342 13 rapport;
#X text 419 14 frq mod fixe;
#X text 635 18 rand on/off;
#X obj 177 231 osc~;
#X obj 173 143 /;
#X text 530 18 index mod;
#X obj 177 341 *~;
#X obj 173 175 spigot;
#X text 520 483 modulation de frequence et vibrato;
#X text 734 20 rand profondeur;
#X text 861 23 rand interva;
#N canvas 978 317 480 250 rand 0;
#X obj 45 25 inlet;
#X obj 69 200 outlet;
#X obj 125 27 inlet;
#X obj 204 27 inlet;
#X text 30 3 on off;
#X text 111 3 profondeur;
#X text 201 6 interva;
#X obj 69 146 random;
#X obj 69 86 metro;
#X obj 114 103 * 100;
#X obj 69 172 / 100;
#X text 108 169 car ne produit pas de nombres a virgule flottante;
#X connect 0 0 8 0;
#X connect 2 0 9 0;
#X connect 3 0 8 1;
#X connect 7 0 10 0;
#X connect 8 0 7 0;
#X connect 9 0 7 1;
#X connect 10 0 1 0;
#X restore 418 264 pd rand;
#X text 480 263 fonction random pour la modulation;
#X obj 162 38 r mod2a;
#X obj 331 34 r mod2b;
#X obj 427 35 r mod2c;
#X obj 539 41 r mod2d;
#X obj 642 41 r mod2e;
#X obj 741 41 r mod2f;
#X obj 864 42 r mod2g;
#X text 410 518 pour osc 2;
#X obj 250 292 sig~;
#X connect 0 0 8 0;
#X connect 7 0 10 0;
#X connect 8 0 11 0;
#X connect 10 0 1 0;
#X connect 11 0 7 0;
#X connect 15 0 25 0;
#X connect 17 0 11 1;
#X connect 18 0 8 1;
#X connect 19 0 7 0;
#X connect 20 0 25 0;
#X connect 21 0 15 0;
#X connect 22 0 15 1;
#X connect 23 0 15 2;
#X connect 25 0 10 1;
#X restore 152 153 pd FM___;
#N canvas 386 374 1119 560 FM___ 0;
#X obj 45 36 inlet;
#X obj 136 446 outlet~;
#X text 37 11 freqence;
#X text 129 18 rapport modulante on/off;
#X text 342 13 rapport;
#X text 419 14 frq mod fixe;
#X text 635 18 rand on/off;
#X obj 177 231 osc~;
#X obj 173 143 /;
#X text 530 18 index mod;
#X obj 177 341 *~;
#X obj 173 175 spigot;
#X text 520 483 modulation de frequence et vibrato;
#X text 734 20 rand profondeur;
#X text 861 23 rand interva;
#N canvas 978 317 480 250 rand 0;
#X obj 45 25 inlet;
#X obj 69 200 outlet;
#X obj 125 27 inlet;
#X obj 204 27 inlet;
#X text 30 3 on off;
#X text 111 3 profondeur;
#X text 201 6 interva;
#X obj 69 146 random;
#X obj 69 86 metro;
#X obj 114 103 * 100;
#X obj 69 172 / 100;
#X text 108 169 car ne produit pas de nombres a virgule flottante;
#X connect 0 0 8 0;
#X connect 2 0 9 0;
#X connect 3 0 8 1;
#X connect 7 0 10 0;
#X connect 8 0 7 0;
#X connect 9 0 7 1;
#X connect 10 0 1 0;
#X restore 418 264 pd rand;
#X text 480 263 fonction random pour la modulation;
#X obj 331 34 r mod3b;
#X obj 162 38 r mod3a;
#X obj 427 35 r mod3c;
#X obj 539 41 r mod3d;
#X obj 642 39 r mod3e;
#X obj 740 41 r mod3f;
#X obj 864 42 r mod3g;
#X text 410 518 pour osc 3;
#X obj 273 295 sig~;
#X connect 0 0 8 0;
#X connect 7 0 10 0;
#X connect 8 0 11 0;
#X connect 10 0 1 0;
#X connect 11 0 7 0;
#X connect 15 0 25 0;
#X connect 17 0 8 1;
#X connect 18 0 11 1;
#X connect 19 0 7 0;
#X connect 20 0 25 0;
#X connect 21 0 15 0;
#X connect 22 0 15 1;
#X connect 23 0 15 2;
#X connect 25 0 10 1;
#X restore 224 151 pd FM___;
#N canvas 317 448 1119 560 FM___ 0;
#X obj 45 36 inlet;
#X obj 136 446 outlet~;
#X text 37 11 freqence;
#X text 129 18 rapport modulante on/off;
#X text 342 13 rapport;
#X text 419 14 frq mod fixe;
#X text 635 18 rand on/off;
#X obj 177 231 osc~;
#X obj 173 143 /;
#X text 530 18 index mod;
#X obj 177 341 *~;
#X obj 173 175 spigot;
#X text 520 483 modulation de frequence et vibrato;
#X text 734 20 rand profondeur;
#X text 861 23 rand interva;
#N canvas 978 317 480 250 rand 0;
#X obj 45 25 inlet;
#X obj 69 200 outlet;
#X obj 125 27 inlet;
#X obj 204 27 inlet;
#X text 30 3 on off;
#X text 111 3 profondeur;
#X text 201 6 interva;
#X obj 69 146 random;
#X obj 69 86 metro;
#X obj 114 103 * 100;
#X obj 69 172 / 100;
#X text 108 169 car ne produit pas de nombres a virgule flottante;
#X connect 0 0 8 0;
#X connect 2 0 9 0;
#X connect 3 0 8 1;
#X connect 7 0 10 0;
#X connect 8 0 7 0;
#X connect 9 0 7 1;
#X connect 10 0 1 0;
#X restore 418 264 pd rand;
#X text 480 263 fonction random pour la modulation;
#X obj 162 38 r mod4a;
#X obj 331 34 r mod4b;
#X obj 429 35 r mod4c;
#X obj 539 41 r mod4d;
#X obj 642 39 r mod4e;
#X obj 741 41 r mod4f;
#X obj 864 42 r mod4g;
#X text 410 518 pour osc 4;
#X obj 239 298 sig~;
#X connect 0 0 8 0;
#X connect 7 0 10 0;
#X connect 8 0 11 0;
#X connect 10 0 1 0;
#X connect 11 0 7 0;
#X connect 15 0 25 0;
#X connect 17 0 11 1;
#X connect 18 0 8 1;
#X connect 19 0 7 0;
#X connect 20 0 25 0;
#X connect 21 0 15 0;
#X connect 22 0 15 1;
#X connect 23 0 15 2;
#X connect 25 0 10 1;
#X restore 297 153 pd FM___;
#X connect 4 0 6 0;
#X connect 4 0 7 0;
#X connect 4 0 8 0;
#X connect 4 0 9 0;
#X connect 6 0 3 0;
#X connect 7 0 2 0;
#X connect 8 0 1 0;
#X connect 9 0 0 0;
